<?xml version="1.0" encoding="utf-8" standalone="no"?>
<!DOCTYPE svg PUBLIC "-//W3C//DTD SVG 1.1//EN"
  "http://www.w3.org/Graphics/SVG/1.1/DTD/svg11.dtd">
<!-- Created with matplotlib (http://matplotlib.org/) -->
<svg height="432pt" version="1.1" viewBox="0 0 576 432" width="576pt" xmlns="http://www.w3.org/2000/svg" xmlns:xlink="http://www.w3.org/1999/xlink">
 <defs>
  <style type="text/css">
*{stroke-linecap:butt;stroke-linejoin:round;}
  </style>
 </defs>
 <g id="figure_1">
  <g id="patch_1">
   <path d="
M0 432
L576 432
L576 0
L0 0
z
" style="fill:#ffffff;"/>
  </g>
  <g id="axes_1">
   <g id="patch_2">
    <path d="
M86.4 367.2
L518.4 367.2
L518.4 43.2
L86.4 43.2
z
" style="fill:#e5e5e5;"/>
   </g>
   <g id="matplotlib.axis_1">
    <g id="xtick_1">
     <g id="line2d_1">
      <path clip-path="url(#p73727f8969)" d="
M86.4 367.2
L86.4 43.2" style="fill:none;stroke:#ffffff;stroke-linecap:square;stroke-width:0.5;"/>
     </g>
     <g id="line2d_2">
      <defs>
       <path d="
M0 0
L0 4" id="m98e6b566c6" style="stroke:#555555;stroke-width:0.5;"/>
      </defs>
      <g>
       <use style="fill:#555555;stroke:#555555;stroke-width:0.5;" x="86.4" xlink:href="#m98e6b566c6" y="367.2"/>
      </g>
     </g>
     <g id="line2d_3">
      <defs>
       <path d="
M0 0
L0 -4" id="m4ba1eff96d" style="stroke:#555555;stroke-width:0.5;"/>
      </defs>
      <g>
       <use style="fill:#555555;stroke:#555555;stroke-width:0.5;" x="86.4" xlink:href="#m4ba1eff96d" y="43.2"/>
      </g>
     </g>
     <g id="text_1">
      <!-- 0.0 -->
      <defs>
       <path d="
M9.125 0
L9.125 10.6875
L18.6562 10.6875
L18.6562 0
z
" id="LiberationSans-2e"/>
       <path d="
M51.7031 34.4219
Q51.7031 24.5156 49.8281 17.75
Q47.9531 10.9844 44.7031 6.8125
Q41.4531 2.64062 37.0625 0.828125
Q32.6719 -0.984375 27.6875 -0.984375
Q22.6562 -0.984375 18.3125 0.828125
Q13.9688 2.64062 10.7656 6.78125
Q7.5625 10.9375 5.73438 17.7031
Q3.90625 24.4688 3.90625 34.4219
Q3.90625 44.8281 5.73438 51.6406
Q7.5625 58.4531 10.7812 62.5
Q14.0156 66.5469 18.4062 68.1875
Q22.7969 69.8281 27.9844 69.8281
Q32.9062 69.8281 37.2188 68.1875
Q41.5469 66.5469 44.7656 62.5
Q48 58.4531 49.8438 51.6406
Q51.7031 44.8281 51.7031 34.4219
M42.7812 34.4219
Q42.7812 42.625 41.7969 48.0625
Q40.8281 53.5156 38.9219 56.7656
Q37.0156 60.0156 34.25 61.3594
Q31.5 62.7031 27.9844 62.7031
Q24.2656 62.7031 21.4375 61.3281
Q18.6094 59.9688 16.6719 56.7188
Q14.75 53.4688 13.7656 48.0156
Q12.7969 42.5781 12.7969 34.4219
Q12.7969 26.5156 13.7969 21.0938
Q14.7969 15.6719 16.7188 12.375
Q18.6562 9.07812 21.4375 7.64062
Q24.2188 6.20312 27.7812 6.20312
Q31.25 6.20312 34.0312 7.64062
Q36.8125 9.07812 38.7344 12.375
Q40.6719 15.6719 41.7188 21.0938
Q42.7812 26.5156 42.7812 34.4219" id="LiberationSans-30"/>
      </defs>
      <g style="fill:#555555;" transform="translate(79.840625 382.446875)scale(0.1 -0.1)">
       <use xlink:href="#LiberationSans-30"/>
       <use x="55.615234375" xlink:href="#LiberationSans-2e"/>
       <use x="83.3984375" xlink:href="#LiberationSans-30"/>
      </g>
     </g>
    </g>
    <g id="xtick_2">
     <g id="line2d_4">
      <path clip-path="url(#p73727f8969)" d="
M158.4 367.2
L158.4 43.2" style="fill:none;stroke:#ffffff;stroke-linecap:square;stroke-width:0.5;"/>
     </g>
     <g id="line2d_5">
      <g>
       <use style="fill:#555555;stroke:#555555;stroke-width:0.5;" x="158.4" xlink:href="#m98e6b566c6" y="367.2"/>
      </g>
     </g>
     <g id="line2d_6">
      <g>
       <use style="fill:#555555;stroke:#555555;stroke-width:0.5;" x="158.4" xlink:href="#m4ba1eff96d" y="43.2"/>
      </g>
     </g>
     <g id="text_2">
      <!-- 0.5 -->
      <defs>
       <path d="
M51.4219 22.4062
Q51.4219 17.2344 49.8594 12.9375
Q48.2969 8.64062 45.2188 5.53125
Q42.1406 2.4375 37.5781 0.71875
Q33.0156 -0.984375 27 -0.984375
Q21.5781 -0.984375 17.5469 0.28125
Q13.5312 1.5625 10.7344 3.78125
Q7.95312 6 6.3125 8.98438
Q4.6875 11.9688 4 15.375
L12.8906 16.4062
Q13.4219 14.4531 14.3906 12.625
Q15.375 10.7969 17.0625 9.34375
Q18.75 7.90625 21.2188 7.04688
Q23.6875 6.20312 27.2031 6.20312
Q30.6094 6.20312 33.3906 7.25
Q36.1875 8.29688 38.1562 10.3438
Q40.1406 12.4062 41.2031 15.375
Q42.2812 18.3594 42.2812 22.2188
Q42.2812 25.3906 41.25 28.0469
Q40.2344 30.7188 38.3281 32.6406
Q36.4219 34.5781 33.6562 35.6406
Q30.9062 36.7188 27.3906 36.7188
Q25.2031 36.7188 23.3438 36.3281
Q21.4844 35.9375 19.8906 35.25
Q18.3125 34.5781 17.0156 33.6719
Q15.7188 32.7656 14.5938 31.7812
L6 31.7812
L8.29688 68.7969
L47.4062 68.7969
L47.4062 61.3281
L16.3125 61.3281
L14.9844 39.5
Q17.3281 41.3125 20.8438 42.5938
Q24.3594 43.8906 29.2031 43.8906
Q34.3281 43.8906 38.4219 42.3281
Q42.5312 40.7656 45.4062 37.9062
Q48.2969 35.0625 49.8594 31.1094
Q51.4219 27.1562 51.4219 22.4062" id="LiberationSans-35"/>
      </defs>
      <g style="fill:#555555;" transform="translate(151.8546875 382.446875)scale(0.1 -0.1)">
       <use xlink:href="#LiberationSans-30"/>
       <use x="55.615234375" xlink:href="#LiberationSans-2e"/>
       <use x="83.3984375" xlink:href="#LiberationSans-35"/>
      </g>
     </g>
    </g>
    <g id="xtick_3">
     <g id="line2d_7">
      <path clip-path="url(#p73727f8969)" d="
M230.4 367.2
L230.4 43.2" style="fill:none;stroke:#ffffff;stroke-linecap:square;stroke-width:0.5;"/>
     </g>
     <g id="line2d_8">
      <g>
       <use style="fill:#555555;stroke:#555555;stroke-width:0.5;" x="230.4" xlink:href="#m98e6b566c6" y="367.2"/>
      </g>
     </g>
     <g id="line2d_9">
      <g>
       <use style="fill:#555555;stroke:#555555;stroke-width:0.5;" x="230.4" xlink:href="#m4ba1eff96d" y="43.2"/>
      </g>
     </g>
     <g id="text_3">
      <!-- 1.0 -->
      <defs>
       <path d="
M7.625 0
L7.625 7.46875
L25.1406 7.46875
L25.1406 60.4062
L9.625 49.3125
L9.625 57.625
L25.875 68.7969
L33.9844 68.7969
L33.9844 7.46875
L50.7344 7.46875
L50.7344 0
z
" id="LiberationSans-31"/>
      </defs>
      <g style="fill:#555555;" transform="translate(224.0265625 382.446875)scale(0.1 -0.1)">
       <use xlink:href="#LiberationSans-31"/>
       <use x="55.615234375" xlink:href="#LiberationSans-2e"/>
       <use x="83.3984375" xlink:href="#LiberationSans-30"/>
      </g>
     </g>
    </g>
    <g id="xtick_4">
     <g id="line2d_10">
      <path clip-path="url(#p73727f8969)" d="
M302.4 367.2
L302.4 43.2" style="fill:none;stroke:#ffffff;stroke-linecap:square;stroke-width:0.5;"/>
     </g>
     <g id="line2d_11">
      <g>
       <use style="fill:#555555;stroke:#555555;stroke-width:0.5;" x="302.4" xlink:href="#m98e6b566c6" y="367.2"/>
      </g>
     </g>
     <g id="line2d_12">
      <g>
       <use style="fill:#555555;stroke:#555555;stroke-width:0.5;" x="302.4" xlink:href="#m4ba1eff96d" y="43.2"/>
      </g>
     </g>
     <g id="text_4">
      <!-- 1.5 -->
      <g style="fill:#555555;" transform="translate(296.040625 382.446875)scale(0.1 -0.1)">
       <use xlink:href="#LiberationSans-31"/>
       <use x="55.615234375" xlink:href="#LiberationSans-2e"/>
       <use x="83.3984375" xlink:href="#LiberationSans-35"/>
      </g>
     </g>
    </g>
    <g id="xtick_5">
     <g id="line2d_13">
      <path clip-path="url(#p73727f8969)" d="
M374.4 367.2
L374.4 43.2" style="fill:none;stroke:#ffffff;stroke-linecap:square;stroke-width:0.5;"/>
     </g>
     <g id="line2d_14">
      <g>
       <use style="fill:#555555;stroke:#555555;stroke-width:0.5;" x="374.4" xlink:href="#m98e6b566c6" y="367.2"/>
      </g>
     </g>
     <g id="line2d_15">
      <g>
       <use style="fill:#555555;stroke:#555555;stroke-width:0.5;" x="374.4" xlink:href="#m4ba1eff96d" y="43.2"/>
      </g>
     </g>
     <g id="text_5">
      <!-- 2.0 -->
      <defs>
       <path d="
M5.03125 0
L5.03125 6.20312
Q7.51562 11.9219 11.1094 16.2812
Q14.7031 20.6562 18.6562 24.1875
Q22.6094 27.7344 26.4844 30.7656
Q30.375 33.7969 33.5 36.8125
Q36.625 39.8438 38.5469 43.1562
Q40.4844 46.4844 40.4844 50.6875
Q40.4844 53.6094 39.5938 55.8281
Q38.7188 58.0625 37.0625 59.5625
Q35.4062 61.0781 33.0781 61.8281
Q30.7656 62.5938 27.9375 62.5938
Q25.2969 62.5938 22.9688 61.8594
Q20.6562 61.1406 18.8438 59.6719
Q17.0469 58.2031 15.8906 56.0312
Q14.75 53.8594 14.4062 50.9844
L5.42188 51.8125
Q5.85938 55.5156 7.46875 58.7812
Q9.07812 62.0625 11.9062 64.5312
Q14.75 67 18.7188 68.4062
Q22.7031 69.8281 27.9375 69.8281
Q33.0625 69.8281 37.0625 68.6094
Q41.0625 67.3906 43.8125 64.9844
Q46.5781 62.5938 48.0469 59.0781
Q49.5156 55.5625 49.5156 50.9844
Q49.5156 47.5156 48.2656 44.3906
Q47.0156 41.2656 44.9375 38.4219
Q42.875 35.5938 40.1406 32.9531
Q37.4062 30.3281 34.4219 27.8125
Q31.4531 25.2969 28.4219 22.8281
Q25.3906 20.3594 22.7188 17.8594
Q20.0625 15.375 17.9688 12.8125
Q15.875 10.25 14.7031 7.46875
L50.5938 7.46875
L50.5938 0
z
" id="LiberationSans-32"/>
      </defs>
      <g style="fill:#555555;" transform="translate(367.896875 382.446875)scale(0.1 -0.1)">
       <use xlink:href="#LiberationSans-32"/>
       <use x="55.615234375" xlink:href="#LiberationSans-2e"/>
       <use x="83.3984375" xlink:href="#LiberationSans-30"/>
      </g>
     </g>
    </g>
    <g id="xtick_6">
     <g id="line2d_16">
      <path clip-path="url(#p73727f8969)" d="
M446.4 367.2
L446.4 43.2" style="fill:none;stroke:#ffffff;stroke-linecap:square;stroke-width:0.5;"/>
     </g>
     <g id="line2d_17">
      <g>
       <use style="fill:#555555;stroke:#555555;stroke-width:0.5;" x="446.4" xlink:href="#m98e6b566c6" y="367.2"/>
      </g>
     </g>
     <g id="line2d_18">
      <g>
       <use style="fill:#555555;stroke:#555555;stroke-width:0.5;" x="446.4" xlink:href="#m4ba1eff96d" y="43.2"/>
      </g>
     </g>
     <g id="text_6">
      <!-- 2.5 -->
      <g style="fill:#555555;" transform="translate(439.9109375 382.446875)scale(0.1 -0.1)">
       <use xlink:href="#LiberationSans-32"/>
       <use x="55.615234375" xlink:href="#LiberationSans-2e"/>
       <use x="83.3984375" xlink:href="#LiberationSans-35"/>
      </g>
     </g>
    </g>
    <g id="xtick_7">
     <g id="line2d_19">
      <path clip-path="url(#p73727f8969)" d="
M518.4 367.2
L518.4 43.2" style="fill:none;stroke:#ffffff;stroke-linecap:square;stroke-width:0.5;"/>
     </g>
     <g id="line2d_20">
      <g>
       <use style="fill:#555555;stroke:#555555;stroke-width:0.5;" x="518.4" xlink:href="#m98e6b566c6" y="367.2"/>
      </g>
     </g>
     <g id="line2d_21">
      <g>
       <use style="fill:#555555;stroke:#555555;stroke-width:0.5;" x="518.4" xlink:href="#m4ba1eff96d" y="43.2"/>
      </g>
     </g>
     <g id="text_7">
      <!-- 3.0 -->
      <defs>
       <path d="
M51.2188 19
Q51.2188 14.2656 49.6719 10.5469
Q48.1406 6.84375 45.1875 4.26562
Q42.2344 1.70312 37.8594 0.359375
Q33.5 -0.984375 27.875 -0.984375
Q21.4844 -0.984375 17.1094 0.609375
Q12.75 2.20312 9.90625 4.8125
Q7.07812 7.42188 5.65625 10.7656
Q4.25 14.1094 3.8125 17.6719
L12.8906 18.5
Q13.2812 15.7656 14.3281 13.5156
Q15.375 11.2812 17.1875 9.67188
Q19 8.0625 21.625 7.17188
Q24.2656 6.29688 27.875 6.29688
Q34.5156 6.29688 38.2969 9.5625
Q42.0938 12.8438 42.0938 19.2812
Q42.0938 23.0938 40.4062 25.4062
Q38.7188 27.7344 36.2031 29.0312
Q33.6875 30.3281 30.7344 30.7656
Q27.7812 31.2031 25.2969 31.2031
L20.3125 31.2031
L20.3125 38.8125
L25.0938 38.8125
Q27.5938 38.8125 30.2656 39.3281
Q32.9531 39.8438 35.1719 41.1875
Q37.4062 42.5312 38.8438 44.8281
Q40.2812 47.125 40.2812 50.6875
Q40.2812 56.2031 37.0312 59.3906
Q33.7969 62.5938 27.3906 62.5938
Q21.5781 62.5938 17.9844 59.6094
Q14.4062 56.6406 13.8125 51.2188
L4.98438 51.9062
Q5.51562 56.4531 7.46875 59.8125
Q9.42188 63.1875 12.4219 65.4062
Q15.4375 67.625 19.2812 68.7188
Q23.1406 69.8281 27.4844 69.8281
Q33.25 69.8281 37.3906 68.375
Q41.5469 66.9375 44.1875 64.4688
Q46.8281 62.0156 48.0625 58.6875
Q49.3125 55.375 49.3125 51.6094
Q49.3125 48.5781 48.4844 45.9375
Q47.6562 43.3125 45.8906 41.2031
Q44.1406 39.1094 41.4219 37.5938
Q38.7188 36.0781 34.9062 35.2969
L34.9062 35.1094
Q39.0625 34.6719 42.1406 33.2188
Q45.2188 31.7812 47.2188 29.625
Q49.2188 27.4844 50.2188 24.75
Q51.2188 22.0156 51.2188 19" id="LiberationSans-33"/>
      </defs>
      <g style="fill:#555555;" transform="translate(511.8359375 382.446875)scale(0.1 -0.1)">
       <use xlink:href="#LiberationSans-33"/>
       <use x="55.615234375" xlink:href="#LiberationSans-2e"/>
       <use x="83.3984375" xlink:href="#LiberationSans-30"/>
      </g>
     </g>
    </g>
    <g id="text_8">
     <!-- Time from word onset (s) -->
     <defs>
      <path d="
M40.2812 0
L40.2812 33.5
Q40.2812 37.3594 39.7188 39.9375
Q39.1562 42.5312 37.8906 44.1094
Q36.625 45.7031 34.5469 46.3594
Q32.4688 47.0156 29.3906 47.0156
Q26.2656 47.0156 23.75 45.9219
Q21.2344 44.8281 19.4531 42.75
Q17.6719 40.6719 16.6875 37.625
Q15.7188 34.5781 15.7188 30.6094
L15.7188 0
L6.9375 0
L6.9375 41.5469
Q6.9375 43.2188 6.90625 45.0469
Q6.89062 46.875 6.82812 48.5
Q6.78125 50.1406 6.73438 51.3125
Q6.6875 52.4844 6.64062 52.8281
L14.9375 52.8281
Q14.9844 52.5938 15.0312 51.5156
Q15.0938 50.4375 15.1562 49.0469
Q15.2344 47.6562 15.2812 46.2188
Q15.3281 44.7812 15.3281 43.7969
L15.4844 43.7969
Q16.75 46.0938 18.2656 47.9531
Q19.7812 49.8125 21.7812 51.0938
Q23.7812 52.3906 26.3594 53.0938
Q28.9531 53.8125 32.375 53.8125
Q36.7656 53.8125 39.9375 52.7344
Q43.1094 51.6562 45.1562 49.4062
Q47.2188 47.1719 48.1719 43.625
Q49.125 40.0938 49.125 35.2031
L49.125 0
z
" id="LiberationSans-6e"/>
      <path d="
M6.9375 0
L6.9375 40.5312
Q6.9375 42.1875 6.90625 43.9219
Q6.89062 45.6562 6.82812 47.2656
Q6.78125 48.875 6.73438 50.2812
Q6.6875 51.7031 6.64062 52.8281
L14.9375 52.8281
Q14.9844 51.7031 15.0625 50.2656
Q15.1406 48.8281 15.2031 47.3125
Q15.2812 45.7969 15.2969 44.4062
Q15.3281 43.0156 15.3281 42.0469
L15.5312 42.0469
Q16.4531 45.0625 17.5 47.2812
Q18.5625 49.5156 19.9688 50.9531
Q21.3906 52.3906 23.3438 53.0938
Q25.2969 53.8125 28.0781 53.8125
Q29.1562 53.8125 30.125 53.6406
Q31.1094 53.4688 31.6406 53.3281
L31.6406 45.2656
Q30.7656 45.5156 29.5938 45.625
Q28.4219 45.75 26.9531 45.75
Q23.9219 45.75 21.7969 44.375
Q19.6719 43.0156 18.3281 40.5938
Q17 38.1875 16.3594 34.8438
Q15.7188 31.5 15.7188 27.5469
L15.7188 0
z
" id="LiberationSans-72"/>
      <path d="
M40.0938 8.5
Q37.6406 3.42188 33.6094 1.21875
Q29.5938 -0.984375 23.6406 -0.984375
Q13.625 -0.984375 8.90625 5.75
Q4.20312 12.5 4.20312 26.1719
Q4.20312 53.8125 23.6406 53.8125
Q29.6406 53.8125 33.6406 51.6094
Q37.6406 49.4219 40.0938 44.625
L40.1875 44.625
Q40.1875 45.125 40.1562 46.1719
Q40.1406 47.2188 40.1094 48.3594
Q40.0938 49.5156 40.0938 50.5312
Q40.0938 51.5625 40.0938 52
L40.0938 72.4688
L48.875 72.4688
L48.875 10.8906
Q48.875 8.98438 48.8906 7.21875
Q48.9219 5.46875 48.9688 4
Q49.0312 2.54688 49.0781 1.48438
Q49.125 0.4375 49.1719 0
L40.7656 0
Q40.6719 0.484375 40.5938 1.39062
Q40.5312 2.29688 40.4531 3.46875
Q40.375 4.64062 40.3281 5.9375
Q40.2812 7.23438 40.2812 8.5
z

M13.4219 26.4688
Q13.4219 21 14.1094 17.0938
Q14.7969 13.1875 16.3125 10.6719
Q17.8281 8.15625 20.1719 6.98438
Q22.5156 5.8125 25.875 5.8125
Q29.3438 5.8125 32 6.9375
Q34.6719 8.0625 36.4531 10.5781
Q38.2344 13.0938 39.1562 17.1406
Q40.0938 21.1875 40.0938 27.0469
Q40.0938 32.6719 39.1562 36.5469
Q38.2344 40.4375 36.4219 42.8281
Q34.625 45.2188 32 46.2656
Q29.3906 47.3125 25.9844 47.3125
Q22.75 47.3125 20.4062 46.1875
Q18.0625 45.0625 16.5 42.5781
Q14.9375 40.0938 14.1719 36.1094
Q13.4219 32.125 13.4219 26.4688" id="LiberationSans-64"/>
      <path d="
M6.6875 64.0625
L6.6875 72.4688
L15.4844 72.4688
L15.4844 64.0625
z

M6.6875 0
L6.6875 52.8281
L15.4844 52.8281
L15.4844 0
z
" id="LiberationSans-69"/>
      <path d="
M37.5 0
L37.5 33.5
Q37.5 37.3594 37.0156 39.9375
Q36.5312 42.5312 35.375 44.1094
Q34.2344 45.7031 32.375 46.3594
Q30.5156 47.0156 27.8281 47.0156
Q25.0469 47.0156 22.7969 45.9219
Q20.5625 44.8281 18.9688 42.75
Q17.3906 40.6719 16.5312 37.625
Q15.6719 34.5781 15.6719 30.6094
L15.6719 0
L6.9375 0
L6.9375 41.5469
Q6.9375 43.2188 6.90625 45.0469
Q6.89062 46.875 6.82812 48.5
Q6.78125 50.1406 6.73438 51.3125
Q6.6875 52.4844 6.64062 52.8281
L14.9375 52.8281
Q14.9844 52.5938 15.0312 51.5156
Q15.0938 50.4375 15.1562 49.0469
Q15.2344 47.6562 15.2812 46.2188
Q15.3281 44.7812 15.3281 43.7969
L15.4844 43.7969
Q16.6562 46.0938 18.0156 47.9531
Q19.3906 49.8125 21.2188 51.0938
Q23.0469 52.3906 25.4062 53.0938
Q27.7812 53.8125 30.9062 53.8125
Q36.9219 53.8125 40.4062 51.4219
Q43.8906 49.0312 45.2656 43.7969
L45.4062 43.7969
Q46.5781 46.0938 48.0469 47.9531
Q49.5156 49.8125 51.4688 51.0938
Q53.4219 52.3906 55.8594 53.0938
Q58.2969 53.8125 61.4219 53.8125
Q65.4375 53.8125 68.3281 52.7344
Q71.2344 51.6562 73.0938 49.4062
Q74.9531 47.1719 75.8281 43.625
Q76.7031 40.0938 76.7031 35.2031
L76.7031 0
L68.0156 0
L68.0156 33.5
Q68.0156 37.3594 67.5312 39.9375
Q67.0469 42.5312 65.8906 44.1094
Q64.75 45.7031 62.8906 46.3594
Q61.0312 47.0156 58.3438 47.0156
Q55.5625 47.0156 53.3125 45.9688
Q51.0781 44.9219 49.4844 42.875
Q47.9062 40.8281 47.0469 37.75
Q46.1875 34.6719 46.1875 30.6094
L46.1875 0
z
" id="LiberationSans-6d"/>
      <path d="
M27.0938 25.7812
Q27.0938 18.9531 26.0625 12.7656
Q25.0469 6.59375 22.8438 0.875
Q20.6562 -4.82812 17.2344 -10.2031
Q13.8125 -15.5781 9.07812 -20.7031
L0.59375 -20.7031
Q5.17188 -15.5781 8.51562 -10.2031
Q11.8594 -4.82812 14 0.921875
Q16.1562 6.6875 17.2031 12.8906
Q18.2656 19.0938 18.2656 25.875
Q18.2656 32.6719 17.2031 38.8594
Q16.1562 45.0625 14 50.7969
Q11.8594 56.5469 8.51562 61.9375
Q5.17188 67.3281 0.59375 72.4688
L9.07812 72.4688
Q13.8125 67.3281 17.2344 61.9531
Q20.6562 56.5938 22.8438 50.875
Q25.0469 45.1719 26.0625 38.9688
Q27.0938 32.7656 27.0938 25.9844
z
" id="LiberationSans-29"/>
      <path d="
M27.0469 0.390625
Q25.0469 -0.140625 22.9688 -0.453125
Q20.9062 -0.78125 18.1719 -0.78125
Q7.625 -0.78125 7.625 11.1875
L7.625 46.4375
L1.51562 46.4375
L1.51562 52.8281
L7.95312 52.8281
L10.5469 64.6562
L16.4062 64.6562
L16.4062 52.8281
L26.1719 52.8281
L26.1719 46.4375
L16.4062 46.4375
L16.4062 13.0938
Q16.4062 9.28125 17.6406 7.73438
Q18.8906 6.20312 21.9688 6.20312
Q23.25 6.20312 24.4375 6.39062
Q25.6406 6.59375 27.0469 6.89062
z
" id="LiberationSans-74"/>
      <path d="
M35.1562 61.1875
L35.1562 0
L25.875 0
L25.875 61.1875
L2.25 61.1875
L2.25 68.7969
L58.7969 68.7969
L58.7969 61.1875
z
" id="LiberationSans-54"/>
      <path d="
M57.3281 0
L47.125 0
L38.6719 34.0781
Q38.2812 35.4062 37.8594 37.3594
Q37.4531 39.3125 37.0625 41.1562
Q36.5781 43.3125 36.1406 45.6094
Q35.6875 43.4062 35.2031 41.2656
Q34.8125 39.4062 34.3438 37.4062
Q33.8906 35.4062 33.5 33.8906
L24.8125 0
L14.6562 0
L-0.140625 52.8281
L8.54688 52.8281
L17.4844 16.9375
Q17.8281 15.8281 18.1562 14.1875
Q18.5 12.5469 18.8438 10.9844
Q19.1875 9.1875 19.5781 7.28125
Q19.9688 9.125 20.4062 10.8906
Q20.7969 12.4062 21.1875 13.9688
Q21.5781 15.5312 21.875 16.5469
L31.4531 52.8281
L40.875 52.8281
L50.0938 16.5469
Q50.4375 15.2812 50.8281 13.6719
Q51.2188 12.0625 51.5625 10.6406
Q51.9531 8.98438 52.3438 7.28125
Q52.7344 9.125 53.125 10.8906
Q53.4688 12.4062 53.8281 14.0312
Q54.2031 15.6719 54.5469 16.9375
L63.875 52.8281
L72.4688 52.8281
z
" id="LiberationSans-77"/>
      <path d="
M46.3906 14.5938
Q46.3906 10.8906 44.9375 7.98438
Q43.5 5.07812 40.7656 3.09375
Q38.0312 1.125 34.0469 0.0625
Q30.0781 -0.984375 24.9531 -0.984375
Q20.3594 -0.984375 16.6719 -0.265625
Q12.9844 0.4375 10.2031 2
Q7.42188 3.5625 5.53125 6.125
Q3.65625 8.6875 2.78125 12.4062
L10.5469 13.9219
Q11.6719 9.67188 15.1875 7.6875
Q18.7031 5.71875 24.9531 5.71875
Q27.7812 5.71875 30.1406 6.10938
Q32.5156 6.5 34.2188 7.45312
Q35.9375 8.40625 36.8906 9.98438
Q37.8438 11.5781 37.8438 13.9219
Q37.8438 16.3125 36.7188 17.8438
Q35.5938 19.3906 33.5938 20.4062
Q31.5938 21.4375 28.7344 22.1875
Q25.875 22.9531 22.4688 23.875
Q19.2812 24.7031 16.1562 25.7344
Q13.0312 26.7656 10.5156 28.4375
Q8.01562 30.125 6.45312 32.6094
Q4.89062 35.1094 4.89062 38.875
Q4.89062 46.0938 10.0312 49.875
Q15.1875 53.6562 25.0469 53.6562
Q33.7969 53.6562 38.9375 50.5781
Q44.0938 47.5156 45.4531 40.7188
L37.5469 39.75
Q37.1094 41.7969 35.9375 43.1875
Q34.7656 44.5781 33.1094 45.4375
Q31.4531 46.2969 29.375 46.6562
Q27.2969 47.0156 25.0469 47.0156
Q19.0938 47.0156 16.25 45.2031
Q13.4219 43.4062 13.4219 39.75
Q13.4219 37.5938 14.4688 36.2031
Q15.5312 34.8125 17.4062 33.8594
Q19.2812 32.9062 21.9219 32.2031
Q24.5625 31.5 27.7344 30.7188
Q29.8281 30.1719 32.0312 29.5625
Q34.2344 28.9531 36.2969 28.0938
Q38.375 27.25 40.2031 26.0938
Q42.0469 24.9531 43.4062 23.3438
Q44.7812 21.7344 45.5781 19.5781
Q46.3906 17.4375 46.3906 14.5938" id="LiberationSans-73"/>
      <path id="LiberationSans-20"/>
      <path d="
M6.20312 25.9844
Q6.20312 32.7656 7.21875 38.9688
Q8.25 45.1719 10.4375 50.875
Q12.6406 56.5938 16.0625 61.9531
Q19.4844 67.3281 24.2188 72.4688
L32.7188 72.4688
Q28.125 67.3281 24.7812 61.9375
Q21.4375 56.5469 19.2812 50.7969
Q17.1406 45.0625 16.0938 38.8594
Q15.0469 32.6719 15.0469 25.875
Q15.0469 19.0938 16.0938 12.8906
Q17.1406 6.6875 19.2812 0.921875
Q21.4375 -4.82812 24.7812 -10.2031
Q28.125 -15.5781 32.7188 -20.7031
L24.2188 -20.7031
Q19.4844 -15.5781 16.0625 -10.2031
Q12.6406 -4.82812 10.4375 0.875
Q8.25 6.59375 7.21875 12.7656
Q6.20312 18.9531 6.20312 25.7812
z
" id="LiberationSans-28"/>
      <path d="
M17.625 46.4375
L17.625 0
L8.84375 0
L8.84375 46.4375
L1.42188 46.4375
L1.42188 52.8281
L8.84375 52.8281
L8.84375 58.7969
Q8.84375 61.6719 9.375 64.1406
Q9.90625 66.6094 11.3438 68.4375
Q12.7969 70.2656 15.2812 71.3125
Q17.7812 72.3594 21.7344 72.3594
Q23.2969 72.3594 24.9688 72.2188
Q26.6562 72.0781 27.9375 71.7812
L27.9375 65.0938
Q27.0938 65.2344 26 65.3594
Q24.9062 65.4844 24.0312 65.4844
Q22.0781 65.4844 20.8281 64.9375
Q19.5781 64.4062 18.875 63.4062
Q18.1719 62.4062 17.8906 60.9375
Q17.625 59.4688 17.625 57.5625
L17.625 52.8281
L27.9375 52.8281
L27.9375 46.4375
z
" id="LiberationSans-66"/>
      <path d="
M13.4844 24.5625
Q13.4844 20.4062 14.3281 16.9062
Q15.1875 13.4219 16.9688 10.9062
Q18.75 8.40625 21.5312 7
Q24.3125 5.60938 28.2188 5.60938
Q33.9375 5.60938 37.375 7.90625
Q40.8281 10.2031 42.0469 13.7188
L49.75 11.5312
Q48.9219 9.32812 47.4375 7.10938
Q45.9531 4.89062 43.4531 3.09375
Q40.9688 1.3125 37.2344 0.15625
Q33.5 -0.984375 28.2188 -0.984375
Q16.5 -0.984375 10.375 6
Q4.25 12.9844 4.25 26.7656
Q4.25 34.1875 6.09375 39.3281
Q7.95312 44.4844 11.1719 47.7031
Q14.4062 50.9219 18.7031 52.3594
Q23 53.8125 27.875 53.8125
Q34.5156 53.8125 38.9844 51.6562
Q43.4531 49.5156 46.1562 45.7188
Q48.875 41.9375 50.0156 36.8125
Q51.1719 31.6875 51.1719 25.7344
L51.1719 24.5625
z

M42.0938 31.2969
Q41.3594 39.6562 37.8438 43.4844
Q34.3281 47.3125 27.7344 47.3125
Q25.5312 47.3125 23.1094 46.6094
Q20.7031 45.9062 18.6562 44.0938
Q16.6094 42.2812 15.1875 39.1719
Q13.7656 36.0781 13.5781 31.2969
z
" id="LiberationSans-65"/>
      <path d="
M51.4219 26.4688
Q51.4219 12.5938 45.3125 5.79688
Q39.2031 -0.984375 27.5938 -0.984375
Q22.0781 -0.984375 17.7188 0.671875
Q13.375 2.34375 10.375 5.76562
Q7.375 9.1875 5.78125 14.3281
Q4.20312 19.4844 4.20312 26.4688
Q4.20312 53.8125 27.875 53.8125
Q34.0312 53.8125 38.5 52.0938
Q42.9688 50.3906 45.8281 46.9688
Q48.6875 43.5625 50.0469 38.4219
Q51.4219 33.2969 51.4219 26.4688
M42.1875 26.4688
Q42.1875 32.625 41.2344 36.625
Q40.2812 40.625 38.4531 43.0156
Q36.625 45.4062 33.9844 46.3594
Q31.3438 47.3125 28.0312 47.3125
Q24.6562 47.3125 21.9375 46.3125
Q19.2344 45.3125 17.3281 42.8906
Q15.4375 40.4844 14.4219 36.4688
Q13.4219 32.4688 13.4219 26.4688
Q13.4219 20.3125 14.5 16.2812
Q15.5781 12.25 17.4531 9.85938
Q19.3438 7.46875 21.9062 6.48438
Q24.4688 5.51562 27.4844 5.51562
Q30.8594 5.51562 33.5938 6.46875
Q36.3281 7.42188 38.2344 9.8125
Q40.1406 12.2031 41.1562 16.25
Q42.1875 20.3125 42.1875 26.4688" id="LiberationSans-6f"/>
     </defs>
     <g style="fill:#555555;" transform="translate(236.3221875 398.218125)scale(0.12 -0.12)">
      <use xlink:href="#LiberationSans-54"/>
      <use x="57.333984375" xlink:href="#LiberationSans-69"/>
      <use x="79.55078125" xlink:href="#LiberationSans-6d"/>
      <use x="162.8515625" xlink:href="#LiberationSans-65"/>
      <use x="218.466796875" xlink:href="#LiberationSans-20"/>
      <use x="246.25" xlink:href="#LiberationSans-66"/>
      <use x="274.033203125" xlink:href="#LiberationSans-72"/>
      <use x="307.333984375" xlink:href="#LiberationSans-6f"/>
      <use x="362.94921875" xlink:href="#LiberationSans-6d"/>
      <use x="446.25" xlink:href="#LiberationSans-20"/>
      <use x="474.033203125" xlink:href="#LiberationSans-77"/>
      <use x="546.25" xlink:href="#LiberationSans-6f"/>
      <use x="601.865234375" xlink:href="#LiberationSans-72"/>
      <use x="635.166015625" xlink:href="#LiberationSans-64"/>
      <use x="690.78125" xlink:href="#LiberationSans-20"/>
      <use x="718.564453125" xlink:href="#LiberationSans-6f"/>
      <use x="774.1796875" xlink:href="#LiberationSans-6e"/>
      <use x="829.794921875" xlink:href="#LiberationSans-73"/>
      <use x="879.794921875" xlink:href="#LiberationSans-65"/>
      <use x="935.41015625" xlink:href="#LiberationSans-74"/>
      <use x="963.193359375" xlink:href="#LiberationSans-20"/>
      <use x="990.9765625" xlink:href="#LiberationSans-28"/>
      <use x="1024.27734375" xlink:href="#LiberationSans-73"/>
      <use x="1074.27734375" xlink:href="#LiberationSans-29"/>
     </g>
    </g>
   </g>
   <g id="matplotlib.axis_2">
    <g id="ytick_1">
     <g id="line2d_22">
      <path clip-path="url(#p73727f8969)" d="
M86.4 367.2
L518.4 367.2" style="fill:none;stroke:#ffffff;stroke-linecap:square;stroke-width:0.5;"/>
     </g>
     <g id="line2d_23">
      <defs>
       <path d="
M0 0
L-4 0" id="m5191f13a99" style="stroke:#555555;stroke-width:0.5;"/>
      </defs>
      <g>
       <use style="fill:#555555;stroke:#555555;stroke-width:0.5;" x="86.4" xlink:href="#m5191f13a99" y="367.2"/>
      </g>
     </g>
     <g id="line2d_24">
      <defs>
       <path d="
M0 0
L4 0" id="mdd7d7fa58b" style="stroke:#555555;stroke-width:0.5;"/>
      </defs>
      <g>
       <use style="fill:#555555;stroke:#555555;stroke-width:0.5;" x="518.4" xlink:href="#mdd7d7fa58b" y="367.2"/>
      </g>
     </g>
     <g id="text_9">
      <!-- 0.0 -->
      <g style="fill:#555555;" transform="translate(65.28125 369.7859375)scale(0.1 -0.1)">
       <use xlink:href="#LiberationSans-30"/>
       <use x="55.615234375" xlink:href="#LiberationSans-2e"/>
       <use x="83.3984375" xlink:href="#LiberationSans-30"/>
      </g>
     </g>
    </g>
    <g id="ytick_2">
     <g id="line2d_25">
      <path clip-path="url(#p73727f8969)" d="
M86.4 320.914
L518.4 320.914" style="fill:none;stroke:#ffffff;stroke-linecap:square;stroke-width:0.5;"/>
     </g>
     <g id="line2d_26">
      <g>
       <use style="fill:#555555;stroke:#555555;stroke-width:0.5;" x="86.4" xlink:href="#m5191f13a99" y="320.914285714"/>
      </g>
     </g>
     <g id="line2d_27">
      <g>
       <use style="fill:#555555;stroke:#555555;stroke-width:0.5;" x="518.4" xlink:href="#mdd7d7fa58b" y="320.914285714"/>
      </g>
     </g>
     <g id="text_10">
      <!-- 0.5 -->
      <g style="fill:#555555;" transform="translate(65.309375 323.500223214)scale(0.1 -0.1)">
       <use xlink:href="#LiberationSans-30"/>
       <use x="55.615234375" xlink:href="#LiberationSans-2e"/>
       <use x="83.3984375" xlink:href="#LiberationSans-35"/>
      </g>
     </g>
    </g>
    <g id="ytick_3">
     <g id="line2d_28">
      <path clip-path="url(#p73727f8969)" d="
M86.4 274.629
L518.4 274.629" style="fill:none;stroke:#ffffff;stroke-linecap:square;stroke-width:0.5;"/>
     </g>
     <g id="line2d_29">
      <g>
       <use style="fill:#555555;stroke:#555555;stroke-width:0.5;" x="86.4" xlink:href="#m5191f13a99" y="274.628571429"/>
      </g>
     </g>
     <g id="line2d_30">
      <g>
       <use style="fill:#555555;stroke:#555555;stroke-width:0.5;" x="518.4" xlink:href="#mdd7d7fa58b" y="274.628571429"/>
      </g>
     </g>
     <g id="text_11">
      <!-- 1.0 -->
      <g style="fill:#555555;" transform="translate(65.653125 277.214508929)scale(0.1 -0.1)">
       <use xlink:href="#LiberationSans-31"/>
       <use x="55.615234375" xlink:href="#LiberationSans-2e"/>
       <use x="83.3984375" xlink:href="#LiberationSans-30"/>
      </g>
     </g>
    </g>
    <g id="ytick_4">
     <g id="line2d_31">
      <path clip-path="url(#p73727f8969)" d="
M86.4 228.343
L518.4 228.343" style="fill:none;stroke:#ffffff;stroke-linecap:square;stroke-width:0.5;"/>
     </g>
     <g id="line2d_32">
      <g>
       <use style="fill:#555555;stroke:#555555;stroke-width:0.5;" x="86.4" xlink:href="#m5191f13a99" y="228.342857143"/>
      </g>
     </g>
     <g id="line2d_33">
      <g>
       <use style="fill:#555555;stroke:#555555;stroke-width:0.5;" x="518.4" xlink:href="#mdd7d7fa58b" y="228.342857143"/>
      </g>
     </g>
     <g id="text_12">
      <!-- 1.5 -->
      <g style="fill:#555555;" transform="translate(65.68125 230.928794643)scale(0.1 -0.1)">
       <use xlink:href="#LiberationSans-31"/>
       <use x="55.615234375" xlink:href="#LiberationSans-2e"/>
       <use x="83.3984375" xlink:href="#LiberationSans-35"/>
      </g>
     </g>
    </g>
    <g id="ytick_5">
     <g id="line2d_34">
      <path clip-path="url(#p73727f8969)" d="
M86.4 182.057
L518.4 182.057" style="fill:none;stroke:#ffffff;stroke-linecap:square;stroke-width:0.5;"/>
     </g>
     <g id="line2d_35">
      <g>
       <use style="fill:#555555;stroke:#555555;stroke-width:0.5;" x="86.4" xlink:href="#m5191f13a99" y="182.057142857"/>
      </g>
     </g>
     <g id="line2d_36">
      <g>
       <use style="fill:#555555;stroke:#555555;stroke-width:0.5;" x="518.4" xlink:href="#mdd7d7fa58b" y="182.057142857"/>
      </g>
     </g>
     <g id="text_13">
      <!-- 2.0 -->
      <g style="fill:#555555;" transform="translate(65.39375 184.643080357)scale(0.1 -0.1)">
       <use xlink:href="#LiberationSans-32"/>
       <use x="55.615234375" xlink:href="#LiberationSans-2e"/>
       <use x="83.3984375" xlink:href="#LiberationSans-30"/>
      </g>
     </g>
    </g>
    <g id="ytick_6">
     <g id="line2d_37">
      <path clip-path="url(#p73727f8969)" d="
M86.4 135.771
L518.4 135.771" style="fill:none;stroke:#ffffff;stroke-linecap:square;stroke-width:0.5;"/>
     </g>
     <g id="line2d_38">
      <g>
       <use style="fill:#555555;stroke:#555555;stroke-width:0.5;" x="86.4" xlink:href="#m5191f13a99" y="135.771428571"/>
      </g>
     </g>
     <g id="line2d_39">
      <g>
       <use style="fill:#555555;stroke:#555555;stroke-width:0.5;" x="518.4" xlink:href="#mdd7d7fa58b" y="135.771428571"/>
      </g>
     </g>
     <g id="text_14">
      <!-- 2.5 -->
      <g style="fill:#555555;" transform="translate(65.421875 138.357366071)scale(0.1 -0.1)">
       <use xlink:href="#LiberationSans-32"/>
       <use x="55.615234375" xlink:href="#LiberationSans-2e"/>
       <use x="83.3984375" xlink:href="#LiberationSans-35"/>
      </g>
     </g>
    </g>
    <g id="ytick_7">
     <g id="line2d_40">
      <path clip-path="url(#p73727f8969)" d="
M86.4 89.4857
L518.4 89.4857" style="fill:none;stroke:#ffffff;stroke-linecap:square;stroke-width:0.5;"/>
     </g>
     <g id="line2d_41">
      <g>
       <use style="fill:#555555;stroke:#555555;stroke-width:0.5;" x="86.4" xlink:href="#m5191f13a99" y="89.4857142857"/>
      </g>
     </g>
     <g id="line2d_42">
      <g>
       <use style="fill:#555555;stroke:#555555;stroke-width:0.5;" x="518.4" xlink:href="#mdd7d7fa58b" y="89.4857142857"/>
      </g>
     </g>
     <g id="text_15">
      <!-- 3.0 -->
      <g style="fill:#555555;" transform="translate(65.271875 92.0716517857)scale(0.1 -0.1)">
       <use xlink:href="#LiberationSans-33"/>
       <use x="55.615234375" xlink:href="#LiberationSans-2e"/>
       <use x="83.3984375" xlink:href="#LiberationSans-30"/>
      </g>
     </g>
    </g>
    <g id="ytick_8">
     <g id="line2d_43">
      <path clip-path="url(#p73727f8969)" d="
M86.4 43.2
L518.4 43.2" style="fill:none;stroke:#ffffff;stroke-linecap:square;stroke-width:0.5;"/>
     </g>
     <g id="line2d_44">
      <g>
       <use style="fill:#555555;stroke:#555555;stroke-width:0.5;" x="86.4" xlink:href="#m5191f13a99" y="43.2"/>
      </g>
     </g>
     <g id="line2d_45">
      <g>
       <use style="fill:#555555;stroke:#555555;stroke-width:0.5;" x="518.4" xlink:href="#mdd7d7fa58b" y="43.2"/>
      </g>
     </g>
     <g id="text_16">
      <!-- 3.5 -->
      <g style="fill:#555555;" transform="translate(65.3 45.7859375)scale(0.1 -0.1)">
       <use xlink:href="#LiberationSans-33"/>
       <use x="55.615234375" xlink:href="#LiberationSans-2e"/>
       <use x="83.3984375" xlink:href="#LiberationSans-35"/>
      </g>
     </g>
    </g>
    <g id="text_17">
     <!-- |t| -->
     <defs>
      <path d="
M8.9375 -21.1875
L8.9375 72.4688
L17.0469 72.4688
L17.0469 -21.1875
z
" id="LiberationSans-7c"/>
     </defs>
     <g style="fill:#555555;" transform="translate(57.729375 208.9125)rotate(-90.0)scale(0.12 -0.12)">
      <use xlink:href="#LiberationSans-7c"/>
      <use x="25.9765625" xlink:href="#LiberationSans-74"/>
      <use x="53.759765625" xlink:href="#LiberationSans-7c"/>
     </g>
    </g>
   </g>
   <g id="line2d_46">
    <path clip-path="url(#p73727f8969)" d="
M86.4 268.83
L87.696 268.83
L87.84 285.136
L89.136 285.136
L89.28 279.973
L90.576 279.973
L90.72 323.241
L92.016 323.241
L92.16 312.937
L93.456 312.937
L93.6 295.126
L94.896 295.126
L95.04 331.87
L96.336 331.87
L96.48 300.238
L97.776 300.238
L97.92 277.635
L99.216 277.635
L99.36 336.274
L100.656 336.274
L100.8 355.096
L102.096 355.096
L102.24 335.074
L103.536 335.074
L103.68 364.348
L104.976 364.348
L105.12 348.288
L106.416 348.288
L106.56 320.042
L107.856 320.042
L108 327.537
L109.296 327.537
L109.44 302.915
L110.736 302.915
L110.88 325.984
L112.176 325.984
L112.32 325.463
L113.616 325.463
L113.76 326.025
L115.056 326.025
L115.2 308.329
L116.496 308.329
L116.64 285.511
L117.936 285.511
L118.08 291.056
L119.376 291.056
L119.52 281.369
L120.816 281.369
L120.96 264.189
L122.256 264.189
L122.4 266.518
L123.696 266.518
L123.84 282.332
L125.136 282.332
L125.28 230.866
L126.576 230.866
L126.72 210.732
L128.016 210.732
L128.16 225.576
L129.456 225.576
L129.6 206.895
L130.896 206.895
L131.04 226.408
L132.336 226.408
L132.48 257.846
L133.776 257.846
L133.92 226.842
L135.216 226.842
L135.36 242.09
L136.656 242.09
L136.8 284.675
L138.096 284.675
L138.24 291.182
L139.536 291.182
L139.68 273.77
L140.976 273.77
L141.12 266.4
L142.416 266.4
L142.56 275.036
L143.856 275.036
L144 313.763
L145.296 313.763
L145.44 316.69
L146.736 316.69
L146.88 329.399
L148.176 329.399
L148.32 328.398
L149.616 328.398
L149.76 325.702
L151.056 325.702
L151.2 335.667
L152.496 335.667
L152.64 323.427
L153.936 323.427
L154.08 338.922
L155.376 338.922
L155.52 363.295
L156.816 363.295
L156.96 358.517
L158.256 358.517
L158.4 344.37
L159.696 344.37
L159.84 316.541
L161.136 316.541
L161.28 311.572
L162.576 311.572
L162.72 341.641
L164.016 341.641
L164.16 311.403
L165.456 311.403
L165.6 282.688
L166.896 282.688
L167.04 315.31
L168.336 315.31
L168.48 325.927
L169.776 325.927
L169.92 328.227
L171.216 328.227
L171.36 325.361
L172.656 325.361
L172.8 300.287
L174.096 300.287
L174.24 335.773
L175.536 335.773
L175.68 365.73
L176.976 365.73
L177.12 353.713
L178.416 353.713
L178.56 332.63
L179.856 332.63
L180 309.164
L181.296 309.164
L181.44 302.577
L182.736 302.577
L182.88 317.33
L184.176 317.33
L184.32 300.677
L185.616 300.677
L185.76 313.181
L187.056 313.181
L187.2 308.624
L188.496 308.624
L188.64 324.247
L189.936 324.247
L190.08 311.171
L191.376 311.171
L191.52 309.878
L192.816 309.878
L192.96 306.039
L194.256 306.039
L194.4 309.327
L195.696 309.327
L195.84 291.709
L197.136 291.709
L197.28 303.232
L198.576 303.232
L198.72 304.44
L200.016 304.44
L200.16 288.471
L201.456 288.471
L201.6 249.835
L202.896 249.835
L203.04 254.918
L204.336 254.918
L204.48 247.988
L205.776 247.988
L205.92 236.951
L207.216 236.951
L207.36 239.888
L208.656 239.888
L208.8 207.966
L210.096 207.966
L210.24 226.638
L211.536 226.638
L211.68 257.548
L212.976 257.548
L213.12 264.981
L214.416 264.981
L214.56 242.771
L215.856 242.771
L216 218.275
L217.296 218.275
L217.44 262.628
L218.736 262.628
L218.88 279.026
L220.176 279.026
L220.32 265.941
L221.616 265.941
L221.76 239.36
L223.056 239.36
L223.2 227.59
L224.496 227.59
L224.64 238.582
L225.936 238.582
L226.08 235.999
L227.376 235.999
L227.52 252.708
L228.816 252.708
L228.96 264.487
L230.256 264.487
L230.4 288.215
L231.696 288.215
L231.84 265.529
L233.136 265.529
L233.28 289.089
L234.576 289.089
L234.72 295.758
L236.016 295.758
L236.16 287.483
L237.456 287.483
L237.6 264.11
L238.896 264.11
L239.04 231.102
L240.336 231.102
L240.48 204.083
L241.776 204.083
L241.92 215.099
L243.216 215.099
L243.36 207.783
L246.096 207.855
L246.24 200.199
L247.536 200.199
L247.68 202.663
L248.976 202.663
L249.12 179.309
L250.416 179.309
L250.56 194.213
L251.856 194.213
L252 195.662
L253.296 195.662
L253.44 193.552
L254.736 193.552
L254.88 210.819
L256.176 210.819
L256.32 212.759
L257.616 212.759
L257.76 216.641
L259.056 216.641
L259.2 215.095
L260.496 215.095
L260.64 201.563
L261.936 201.563
L262.08 219.611
L263.376 219.611
L263.52 209.307
L264.816 209.307
L264.96 239.456
L266.256 239.456
L266.4 260.323
L267.696 260.323
L267.84 265.971
L269.136 265.971
L269.28 297.518
L270.576 297.518
L270.72 303.375
L272.016 303.375
L272.16 293.421
L273.456 293.421
L273.6 279.422
L274.896 279.422
L275.04 270.74
L276.336 270.74
L276.48 282.047
L277.776 282.047
L277.92 273.199
L279.216 273.199
L279.36 249.997
L280.656 249.997
L280.8 254.672
L282.096 254.672
L282.24 230.87
L283.536 230.87
L283.68 217.554
L284.976 217.554
L285.12 216.224
L286.416 216.224
L286.56 218.265
L287.856 218.265
L288 213.845
L289.296 213.845
L289.44 215.115
L290.736 215.115
L290.88 214.308
L292.176 214.308
L292.32 199
L293.616 199
L293.76 188.692
L295.056 188.692
L295.2 168.633
L296.496 168.633
L296.64 190.017
L297.936 190.017
L298.08 176.965
L299.376 176.965
L299.52 175.979
L300.816 175.979
L300.96 165.777
L302.256 165.777
L302.4 165.303
L303.696 165.303
L303.84 154.566
L305.136 154.566
L305.28 143.799
L306.576 143.799
L306.72 144.655
L308.016 144.655
L308.16 165.815
L309.456 165.815
L309.6 183.665
L310.896 183.665
L311.04 202.055
L312.336 202.055
L312.48 190.059
L313.776 190.059
L313.92 154.491
L315.216 154.491
L315.36 124.766
L316.656 124.766
L316.8 135.012
L318.096 135.012
L318.24 150.169
L319.536 150.169
L319.68 153.771
L320.976 153.771
L321.12 154.395
L322.416 154.395
L322.56 144.407
L323.856 144.407
L324 127.909
L325.296 127.909
L325.44 127.279
L326.736 127.279
L326.88 131.151
L328.176 131.151
L328.32 153.132
L329.616 153.132
L329.76 113.901
L331.056 113.901
L331.2 137.853
L332.496 137.853
L332.64 125.254
L333.936 125.254
L334.08 128.637
L335.376 128.637
L335.52 128.031
L336.816 128.031
L336.96 132.007
L338.256 132.007
L338.4 131.367
L339.696 131.367
L339.84 113.335
L341.136 113.335
L341.28 100.355
L342.576 100.355
L342.72 73.1161
L344.016 73.1161
L344.16 87.6038
L345.456 87.6038
L345.6 94.6229
L346.896 94.6229
L347.04 99.9243
L348.336 99.9243
L348.48 108.912
L349.776 108.912
L349.92 77.4882
L351.216 77.4882
L351.36 84.7147
L352.656 84.7147
L352.8 110.604
L354.096 110.604
L354.24 122.53
L355.536 122.53
L355.68 130.389
L356.976 130.389
L357.12 145.582
L358.416 145.582
L358.56 129.151
L359.856 129.151
L360 177.963
L361.296 177.963
L361.44 195.231
L362.736 195.231
L362.88 206.937
L364.176 206.937
L364.32 217.872
L365.616 217.872
L365.76 201.812
L367.056 201.812
L367.2 200.571
L368.496 200.571
L368.64 191.397
L369.936 191.397
L370.08 197.362
L371.376 197.362
L371.52 192.469
L372.816 192.469
L372.96 210.569
L374.256 210.569
L374.4 184.88
L375.696 184.88
L375.84 169.315
L377.136 169.315
L377.28 178.343
L378.576 178.343
L378.72 170.418
L380.016 170.418
L380.16 180.235
L381.456 180.235
L381.6 183.447
L382.896 183.447
L383.04 197.305
L384.336 197.305
L384.48 199.848
L385.776 199.848
L385.92 217.593
L387.216 217.593
L387.36 232.907
L388.656 232.907
L388.8 218.444
L390.096 218.444
L390.24 212.281
L391.536 212.281
L391.68 211.919
L392.976 211.919
L393.12 209.454
L394.416 209.454
L394.56 228.12
L395.856 228.12
L396 256.607
L397.296 256.607
L397.44 261.478
L398.736 261.478
L398.88 262.997
L400.176 262.997
L400.32 220.038
L401.616 220.038
L401.76 203.959
L403.056 203.959
L403.2 195.46
L404.496 195.46
L404.64 193.87
L405.936 193.87
L406.08 197.674
L407.376 197.674
L407.52 203.485
L408.816 203.485
L408.96 207.524
L410.256 207.524
L410.4 210.199
L411.696 210.199
L411.84 219.956
L413.136 219.956
L413.28 211.465
L414.576 211.465
L414.72 218.555
L416.016 218.555
L416.16 197.458
L417.456 197.458
L417.6 189.157
L418.896 189.157
L419.04 198.529
L420.336 198.529
L420.48 224.873
L421.776 224.873
L421.92 241.511
L423.216 241.511
L423.36 254.133
L424.656 254.133
L424.8 252.434
L426.096 252.434
L426.24 239.296
L427.536 239.296
L427.68 246.86
L428.976 246.86
L429.12 247.335
L430.416 247.335
L430.56 262.987
L431.856 262.987
L432.144 262.841
L433.296 262.841
L433.44 261.787
L434.736 261.787
L434.88 231
L436.176 231
L436.32 219.813
L437.616 219.813
L437.76 221.663
L439.056 221.663
L439.2 230.709
L440.496 230.709
L440.64 229.793
L441.936 229.793
L442.08 235.417
L443.376 235.417
L443.52 224.685
L444.816 224.685
L444.96 251.493
L446.256 251.493
L446.4 240.15
L447.696 240.15
L447.84 258.446
L449.136 258.446
L449.28 253.729
L450.576 253.729
L450.72 251.486
L452.016 251.486
L452.16 271.455
L453.456 271.455
L453.6 281.641
L454.896 281.641
L455.04 273.369
L456.336 273.369
L456.48 272.607
L457.776 272.607
L457.92 274.604
L459.216 274.604
L459.36 288.996
L460.656 288.996
L460.8 296.174
L462.096 296.174
L462.24 305.332
L463.536 305.332
L463.68 308.77
L464.976 308.77
L465.12 273.746
L466.416 273.746
L466.56 279.028
L467.856 279.028
L468 267.342
L469.296 267.342
L469.44 275.825
L470.736 275.825
L470.88 294.545
L472.176 294.545
L472.32 280.894
L473.616 280.894
L473.76 292.35
L475.056 292.35
L475.2 295.623
L476.496 295.623
L476.64 285.961
L477.936 285.961
L478.08 297.695
L479.376 297.695
L479.52 303.475
L480.816 303.475
L480.96 293.745
L482.256 293.745
L482.4 294.933
L483.696 294.933
L483.84 315.794
L485.136 315.794
L485.28 295.334
L486.576 295.334
L486.72 276.025
L488.016 276.025
L488.16 300.274
L489.456 300.274
L489.6 290.558
L490.896 290.558
L491.04 294.101
L492.336 294.101
L492.48 268.44
L493.776 268.44
L493.92 272.56
L495.216 272.56
L495.36 257.684
L496.656 257.684
L496.8 248.041
L498.096 248.041
L498.24 244.9
L499.536 244.9
L499.68 241.113
L500.976 241.113
L501.12 230.618
L502.416 230.618
L502.56 255.146
L503.856 255.146
L504 256.115
L505.296 256.115
L505.44 251.507
L506.736 251.507
L506.88 238.351
L508.176 238.351
L508.32 249.538
L509.616 249.538
L509.76 231.602
L511.056 231.602
L511.2 232.279
L512.496 232.279
L512.64 244.322
L513.936 244.322
L514.08 256.714
L515.376 256.714
L515.52 263.613
L516.816 263.613
L516.96 261.491
L518.256 261.491
L518.256 261.491" style="fill:none;stroke:#ef2929;stroke-linecap:square;"/>
   </g>
   <g id="line2d_47">
    <path clip-path="url(#p73727f8969)" d="
M86.4 298.389
L87.696 298.389
L87.84 337.25
L89.136 337.25
L89.28 344.714
L90.576 344.714
L90.72 335.958
L92.016 335.958
L92.16 351.724
L93.456 351.724
L93.6 366.027
L94.896 366.027
L95.04 347.895
L96.336 347.895
L96.48 352.935
L97.776 352.935
L97.92 343.913
L99.216 343.913
L99.36 329.402
L100.656 329.402
L100.8 324.747
L102.096 324.747
L102.24 350.261
L103.536 350.261
L103.68 307.793
L104.976 307.793
L105.12 271.184
L106.416 271.184
L106.56 235.175
L107.856 235.175
L108 239.383
L109.296 239.383
L109.44 222.259
L110.736 222.259
L110.88 255.804
L112.176 255.804
L112.32 256.606
L113.616 256.606
L113.76 283.361
L115.056 283.361
L115.2 270.433
L116.496 270.433
L116.64 246.857
L117.936 246.857
L118.08 251.393
L119.376 251.393
L119.52 237.748
L120.816 237.748
L120.96 239.835
L122.256 239.835
L122.4 232.258
L123.696 232.258
L123.84 236.727
L125.136 236.727
L125.28 205.978
L126.576 205.978
L126.72 198.886
L128.016 198.886
L128.16 212.545
L129.456 212.545
L129.6 189.86
L130.896 189.86
L131.04 206.963
L132.336 206.963
L132.48 223.898
L133.776 223.898
L133.92 210.875
L135.216 210.875
L135.36 197.699
L136.656 197.699
L136.8 242.492
L138.096 242.492
L138.24 226.624
L139.536 226.624
L139.68 223.577
L140.976 223.577
L141.12 195.58
L142.416 195.58
L142.56 193.124
L143.856 193.124
L144 244.346
L145.296 244.346
L145.44 254.092
L146.736 254.092
L146.88 271.425
L148.176 271.425
L148.32 297.661
L149.616 297.661
L149.76 305.079
L151.056 305.079
L151.2 303.738
L152.496 303.738
L152.64 312.993
L153.936 312.993
L154.08 325.575
L155.376 325.575
L155.52 355.808
L156.816 355.808
L156.96 354.547
L158.256 354.547
L158.4 358.161
L159.696 358.161
L159.84 338.577
L161.136 338.577
L161.28 354.253
L162.576 354.253
L162.72 356.357
L165.456 356.359
L165.6 330.058
L166.896 330.058
L167.04 361.704
L168.336 361.704
L168.48 351.038
L169.776 351.038
L169.92 334.63
L171.216 334.63
L171.36 361.946
L172.656 361.946
L172.8 360.96
L174.096 360.96
L174.24 350.345
L175.536 350.345
L175.68 307.479
L176.976 307.479
L177.12 326.565
L178.416 326.565
L178.56 291.402
L179.856 291.402
L180 278.056
L181.296 278.056
L181.44 262.855
L182.736 262.855
L182.88 284.87
L184.176 284.87
L184.32 283.864
L185.616 283.864
L185.76 284.481
L187.056 284.481
L187.2 292.752
L188.496 292.752
L188.64 289.537
L189.936 289.537
L190.08 298.452
L191.376 298.452
L191.52 306.079
L192.816 306.079
L192.96 317.401
L194.256 317.401
L194.4 313.909
L195.696 313.909
L195.84 306.877
L197.136 306.877
L197.28 323.666
L198.576 323.666
L198.72 327.73
L200.016 327.73
L200.16 293.908
L201.456 293.908
L201.6 258.554
L202.896 258.554
L203.04 257.775
L204.336 257.775
L204.48 235.906
L205.776 235.906
L205.92 239.965
L207.216 239.965
L207.36 250.339
L208.656 250.339
L208.8 205.08
L210.096 205.08
L210.24 224.908
L211.536 224.908
L211.68 246.956
L212.976 246.956
L213.12 240.964
L214.416 240.964
L214.56 258.747
L215.856 258.747
L216 246.046
L217.296 246.046
L217.44 287.539
L218.736 287.539
L218.88 305.655
L220.176 305.655
L220.32 288.082
L221.616 288.082
L221.76 248.223
L223.056 248.223
L223.2 232.3
L224.496 232.3
L224.64 230.082
L225.936 230.082
L226.08 233.596
L227.376 233.596
L227.52 223.656
L228.816 223.656
L228.96 240.869
L230.256 240.869
L230.4 254.523
L231.696 254.523
L231.84 243.938
L233.136 243.938
L233.28 248.179
L234.576 248.179
L234.72 256.895
L236.016 256.895
L236.16 254.185
L237.456 254.185
L237.6 229.482
L238.896 229.482
L239.04 192.615
L240.336 192.615
L240.48 187.36
L241.776 187.36
L241.92 192.344
L243.216 192.344
L243.36 188.75
L244.656 188.75
L244.8 183.764
L246.096 183.764
L246.24 181.335
L247.536 181.335
L247.68 190.494
L248.976 190.494
L249.12 178.809
L250.416 178.809
L250.56 191.171
L251.856 191.171
L252 175.913
L253.296 175.913
L253.44 197.561
L254.736 197.561
L254.88 222.094
L256.176 222.094
L256.32 224.055
L257.616 224.055
L257.76 214.522
L259.056 214.522
L259.2 217.647
L260.496 217.647
L260.64 223.777
L261.936 223.777
L262.08 230.33
L263.376 230.33
L263.52 226.793
L264.816 226.793
L264.96 248.987
L266.256 248.987
L266.4 258.546
L267.696 258.546
L267.84 264.475
L269.136 264.475
L269.28 281.721
L270.576 281.721
L270.72 266.646
L272.016 266.646
L272.16 244.782
L273.456 244.782
L273.6 232.698
L274.896 232.698
L275.04 220.75
L276.336 220.75
L276.48 216.319
L277.776 216.319
L277.92 205.937
L279.216 205.937
L279.36 189.673
L280.656 189.673
L280.8 204.419
L282.096 204.419
L282.24 198.815
L283.536 198.815
L283.68 193.454
L284.976 193.454
L285.12 186.625
L286.416 186.625
L286.56 196.632
L287.856 196.632
L288 179.473
L289.296 179.473
L289.44 193.497
L290.736 193.497
L290.88 185.98
L292.176 185.98
L292.32 169.402
L293.616 169.402
L293.76 167.306
L295.056 167.306
L295.2 157.934
L296.496 157.934
L296.64 180.165
L297.936 180.165
L298.08 179.409
L299.376 179.409
L299.52 183.661
L300.816 183.661
L300.96 155.16
L302.256 155.16
L302.4 152.554
L303.696 152.554
L303.84 152.933
L305.136 152.933
L305.28 144.152
L306.576 144.152
L306.72 144.654
L308.016 144.654
L308.16 166.731
L309.456 166.731
L309.6 182.223
L310.896 182.223
L311.04 192.274
L312.336 192.274
L312.48 195.315
L313.776 195.315
L313.92 157.135
L315.216 157.135
L315.36 153.464
L316.656 153.464
L316.8 180.651
L318.096 180.651
L318.24 170.906
L319.536 170.906
L319.68 179.848
L320.976 179.848
L321.12 167.494
L322.416 167.494
L322.56 160.688
L323.856 160.688
L324 152.676
L325.296 152.676
L325.44 159.799
L326.736 159.799
L326.88 155.646
L328.176 155.646
L328.32 172.708
L329.616 172.708
L329.76 127.215
L331.056 127.215
L331.2 139.129
L332.496 139.129
L332.64 119.729
L333.936 119.729
L334.08 130.27
L335.376 130.27
L335.52 129.858
L336.816 129.858
L336.96 122.08
L338.256 122.08
L338.4 130.209
L339.696 130.209
L339.84 96.7862
L341.136 96.7862
L341.28 74.2195
L342.576 74.2195
L342.72 61.1703
L344.016 61.1703
L344.16 82.6783
L345.456 82.6783
L345.6 88.1486
L346.896 88.1486
L347.04 92.4447
L348.336 92.4447
L348.48 109.896
L349.776 109.896
L349.92 96.346
L351.216 96.346
L351.36 106.45
L352.656 106.45
L352.8 115.628
L354.096 115.628
L354.24 114.435
L355.536 114.435
L355.68 131.837
L356.976 131.837
L357.12 135.1
L358.416 135.1
L358.56 126.619
L359.856 126.619
L360 174.122
L361.296 174.122
L361.44 185.92
L362.736 185.92
L362.88 195.371
L364.176 195.371
L364.32 202.363
L365.616 202.363
L365.76 181.677
L367.056 181.677
L367.2 168.524
L368.496 168.524
L368.64 176.932
L369.936 176.932
L370.08 178.017
L371.376 178.017
L371.52 160.134
L372.816 160.134
L372.96 178.228
L374.256 178.228
L374.4 151.02
L375.696 151.02
L375.84 140.675
L377.136 140.675
L377.28 146.476
L378.576 146.476
L378.72 138.647
L380.016 138.647
L380.16 148.308
L381.456 148.308
L381.6 159.334
L382.896 159.334
L383.04 154.857
L384.336 154.857
L384.48 157.819
L385.776 157.819
L385.92 178.314
L387.216 178.314
L387.36 200.753
L388.656 200.753
L388.8 174.468
L390.096 174.468
L390.24 172.274
L391.536 172.274
L391.68 177.631
L392.976 177.631
L393.12 168.192
L394.416 168.192
L394.56 183.732
L395.856 183.732
L396 207.44
L397.296 207.44
L397.44 212.027
L398.736 212.027
L398.88 223.004
L400.176 223.004
L400.32 203.766
L401.616 203.766
L401.76 208.579
L403.056 208.579
L403.2 199.2
L404.496 199.2
L404.64 197.228
L405.936 197.228
L406.08 191.544
L407.376 191.544
L407.52 207.823
L408.816 207.823
L408.96 200.685
L410.256 200.685
L410.4 200.925
L411.696 200.925
L411.84 211.327
L413.136 211.327
L413.28 199.148
L414.576 199.148
L414.72 212.093
L416.016 212.093
L416.16 197.188
L417.456 197.188
L417.6 197.449
L418.896 197.449
L419.04 211.855
L420.336 211.855
L420.48 238.688
L421.776 238.688
L421.92 244.228
L423.216 244.228
L423.36 268.556
L424.656 268.556
L424.8 270.195
L426.096 270.195
L426.24 245.774
L427.536 245.774
L427.68 253.859
L428.976 253.859
L429.12 250.765
L430.416 250.765
L430.56 266.205
L431.856 266.205
L432 269.334
L433.296 269.334
L433.44 269.77
L434.736 269.77
L434.88 251.163
L436.176 251.163
L436.32 247.196
L437.616 247.196
L437.76 244.187
L439.056 244.187
L439.2 232.853
L440.496 232.853
L440.64 223.745
L441.936 223.745
L442.08 219.481
L443.376 219.481
L443.52 208.213
L444.816 208.213
L444.96 245.34
L446.256 245.34
L446.4 234.56
L447.696 234.56
L447.84 242.452
L449.136 242.452
L449.28 229.597
L450.576 229.597
L450.72 224.921
L452.016 224.921
L452.16 246.969
L453.456 246.969
L453.6 257.57
L454.896 257.57
L455.04 243.549
L456.336 243.549
L456.48 250.022
L457.776 250.022
L457.92 252.588
L459.216 252.588
L459.36 268.218
L460.656 268.218
L460.8 289.255
L462.096 289.255
L462.24 285.224
L463.536 285.224
L463.68 277.219
L464.976 277.219
L465.12 231.059
L466.416 231.059
L466.56 233.658
L467.856 233.658
L468 216.964
L469.296 216.964
L469.44 212.298
L470.736 212.298
L470.88 254.365
L472.176 254.365
L472.32 244.403
L473.616 244.403
L473.76 252.811
L475.056 252.811
L475.2 254.182
L476.496 254.182
L476.64 244.258
L477.936 244.258
L478.08 239.917
L479.376 239.917
L479.52 240.419
L480.816 240.419
L480.96 241.142
L482.256 241.142
L482.4 246.895
L483.696 246.895
L483.84 253.922
L485.136 253.922
L485.28 247.602
L486.576 247.602
L486.72 230.423
L488.016 230.423
L488.16 253.525
L489.456 253.525
L489.6 245.347
L490.896 245.347
L491.04 230.703
L492.336 230.703
L492.48 217.617
L493.776 217.617
L493.92 237.414
L495.216 237.414
L495.36 222.736
L496.656 222.736
L496.8 221.619
L498.096 221.619
L498.24 240.015
L499.536 240.015
L499.68 246.755
L500.976 246.755
L501.12 233.014
L502.416 233.014
L502.56 248.499
L503.856 248.499
L504 242.028
L505.296 242.028
L505.44 250.234
L506.736 250.234
L506.88 236.661
L508.176 236.661
L508.32 249.158
L509.616 249.158
L509.76 231.747
L511.056 231.747
L511.2 239.314
L512.496 239.314
L512.64 235.338
L513.936 235.338
L514.08 250.513
L515.376 250.513
L515.52 253.975
L516.816 253.975
L516.96 248.375
L518.256 248.375
L518.256 248.375" style="fill:none;stroke:#ad7fa8;stroke-linecap:square;"/>
   </g>
   <g id="line2d_48">
    <path clip-path="url(#p73727f8969)" d="
M86.4 367.085
L87.696 367.085
L87.84 347.901
L89.136 347.901
L89.28 348.899
L90.576 348.899
L90.72 265.245
L92.016 265.245
L92.16 304.906
L93.456 304.906
L93.6 307.252
L94.896 307.252
L95.04 308.053
L96.336 308.053
L96.48 344.128
L97.776 344.128
L97.92 356.978
L99.216 356.978
L99.36 351.235
L100.656 351.235
L100.8 338.434
L102.096 338.434
L102.24 342.968
L103.536 342.968
L103.68 330.805
L104.976 330.805
L105.12 299.002
L106.416 299.002
L106.56 273.154
L107.856 273.154
L108 299.384
L109.296 299.384
L109.44 291.316
L110.736 291.316
L110.88 277.416
L112.176 277.416
L112.32 284.415
L113.616 284.415
L113.76 317.83
L115.056 317.83
L115.2 342.986
L116.496 342.986
L116.64 321.245
L117.936 321.245
L118.08 316.339
L119.376 316.339
L119.52 318.691
L120.816 318.691
L120.96 295.993
L122.256 295.993
L122.4 284.669
L123.696 284.669
L123.84 261.04
L125.136 261.04
L125.28 253.129
L126.576 253.129
L126.72 275.367
L128.016 275.367
L128.16 265.924
L129.456 265.924
L129.6 249.59
L130.896 249.59
L131.04 247.341
L132.336 247.341
L132.48 255.204
L133.776 255.204
L133.92 251.388
L135.216 251.388
L135.36 236.041
L136.656 236.041
L136.8 263.45
L138.096 263.45
L138.24 225.159
L139.536 225.159
L139.68 210.718
L140.976 210.718
L141.12 163.697
L142.416 163.697
L142.56 130.938
L143.856 130.938
L144 152.307
L145.296 152.307
L145.44 198.761
L146.736 198.761
L146.88 192.046
L148.176 192.046
L148.32 197.208
L149.616 197.208
L149.76 198.495
L151.056 198.495
L151.2 189.883
L152.496 189.883
L152.64 230.517
L153.936 230.517
L154.08 225.584
L155.376 225.584
L155.52 263.594
L156.816 263.594
L156.96 299.569
L158.256 299.569
L158.4 319.006
L159.696 319.006
L159.84 296.803
L161.136 296.803
L161.28 312.728
L162.576 312.728
L162.72 308.34
L164.016 308.34
L164.16 299.322
L165.456 299.322
L165.6 278.538
L166.896 278.538
L167.04 312.949
L168.336 312.949
L168.48 340.609
L169.776 340.609
L169.92 366.846
L171.216 366.846
L171.36 337.744
L172.656 337.744
L172.8 335.707
L174.096 335.707
L174.24 352.416
L175.536 352.416
L175.68 344.416
L176.976 344.416
L177.12 357.767
L178.416 357.767
L178.56 356.172
L179.856 356.172
L180 366.223
L181.296 366.223
L181.44 330.187
L182.736 330.187
L182.88 328.489
L184.176 328.489
L184.32 363.366
L185.616 363.366
L185.76 345.092
L187.056 345.092
L187.2 349.672
L188.496 349.672
L188.64 365.987
L189.936 365.987
L190.08 349.802
L191.376 349.802
L191.52 334.161
L192.816 334.161
L192.96 335.571
L194.256 335.571
L194.4 354.066
L195.696 354.066
L195.84 364.563
L197.136 364.563
L197.28 345.711
L198.576 345.711
L198.72 365.962
L200.016 365.962
L200.16 336.605
L201.456 336.605
L201.6 289.871
L202.896 289.871
L203.04 298.002
L204.336 298.002
L204.48 306.157
L205.776 306.157
L205.92 309.165
L207.216 309.165
L207.36 325.2
L208.656 325.2
L208.8 293.87
L210.096 293.87
L210.24 316.103
L211.536 316.103
L211.68 326.334
L212.976 326.334
L213.12 318.241
L214.416 318.241
L214.56 317.652
L215.856 317.652
L216 324.374
L217.296 324.374
L217.44 343.904
L218.736 343.904
L218.88 353.004
L220.176 353.004
L220.32 354.226
L221.616 354.226
L221.76 299.679
L223.056 299.679
L223.2 303.408
L224.496 303.408
L224.64 287.863
L225.936 287.863
L226.08 300.694
L227.376 300.694
L227.52 300.093
L228.816 300.093
L228.96 313.032
L230.256 313.032
L230.4 321.632
L231.696 321.632
L231.84 321.814
L233.136 321.814
L233.28 308.587
L234.576 308.587
L234.72 331.51
L236.016 331.51
L236.16 344.245
L237.456 344.245
L237.6 336.118
L238.896 336.118
L239.04 298.874
L240.336 298.874
L240.48 317.187
L241.776 317.187
L241.92 310.67
L243.216 310.67
L243.36 332.613
L244.656 332.613
L244.8 341.308
L246.096 341.308
L246.24 349.415
L247.536 349.415
L247.68 344.331
L248.976 344.331
L249.12 346.778
L250.416 346.778
L250.56 354.198
L251.856 354.198
L252 327.283
L253.296 327.283
L253.44 334.16
L254.736 334.16
L254.88 356.696
L256.176 356.696
L256.32 337.834
L257.616 337.834
L257.76 344.803
L259.056 344.803
L259.2 352.229
L260.496 352.229
L260.64 353.524
L261.936 353.524
L262.08 363.137
L263.376 363.137
L263.52 356.274
L264.816 356.274
L264.96 366.65
L266.256 366.65
L266.4 363.787
L267.696 363.787
L267.84 358.545
L269.136 358.545
L269.28 353.747
L270.576 353.747
L270.72 360.212
L272.016 360.212
L272.16 352.896
L273.456 352.896
L273.6 336.074
L274.896 336.074
L275.04 348.288
L276.336 348.288
L276.48 329.378
L277.776 329.378
L277.92 321.802
L279.216 321.802
L279.36 333.759
L280.656 333.759
L280.8 355.359
L282.096 355.359
L282.24 365.049
L283.536 365.049
L283.68 358.335
L284.976 358.335
L285.12 342.837
L286.416 342.837
L286.56 366.291
L287.856 366.291
L288 348.184
L289.296 348.184
L289.44 365.195
L290.736 365.195
L290.88 362.298
L292.176 362.298
L292.32 342.733
L293.616 342.733
L293.76 326.957
L295.056 326.957
L295.2 324.285
L296.496 324.285
L296.64 338.793
L297.936 338.793
L298.08 316.802
L299.376 316.802
L299.52 328.467
L300.816 328.467
L300.96 332.48
L302.256 332.48
L302.4 329.753
L303.696 329.753
L303.84 331.149
L305.136 331.149
L305.28 326.113
L306.576 326.113
L306.72 319.545
L308.016 319.545
L308.16 335.856
L309.456 335.856
L309.6 332.064
L310.896 332.064
L311.04 330.741
L312.336 330.741
L312.48 324.61
L313.776 324.61
L313.92 290.251
L315.216 290.251
L315.36 307.892
L316.656 307.892
L316.8 326.53
L318.096 326.53
L318.24 306.729
L319.536 306.729
L319.68 300.679
L320.976 300.679
L321.12 280.72
L322.416 280.72
L322.56 284.862
L323.856 284.862
L324 290.613
L325.296 290.613
L325.44 300.692
L326.736 300.692
L326.88 299.2
L328.176 299.2
L328.32 304.731
L329.616 304.731
L329.76 294.048
L331.056 294.048
L331.2 289.051
L332.496 289.051
L332.64 289.682
L333.936 289.682
L334.08 280.519
L335.376 280.519
L335.52 278.493
L336.816 278.493
L336.96 276.526
L338.256 276.526
L338.4 292.55
L339.696 292.55
L339.84 286.008
L341.136 286.008
L341.28 293.077
L342.576 293.077
L342.72 295.153
L344.016 295.153
L344.16 289.98
L346.896 289.999
L347.04 305.04
L348.336 305.04
L348.48 307.804
L349.776 307.804
L349.92 286.14
L351.216 286.14
L351.36 292.296
L352.656 292.296
L352.944 292.14
L354.096 292.14
L354.24 294.765
L355.536 294.765
L355.68 300.604
L356.976 300.604
L357.12 299.431
L358.416 299.431
L358.56 294.211
L359.856 294.211
L360 301.163
L361.296 301.163
L361.44 299.234
L362.736 299.234
L362.88 307.904
L364.176 307.904
L364.32 309.902
L365.616 309.902
L365.76 283.636
L367.056 283.636
L367.2 275.431
L368.496 275.431
L368.64 293.706
L369.936 293.706
L370.08 287.759
L371.376 287.759
L371.52 296.826
L372.816 296.826
L372.96 286.718
L374.256 286.718
L374.4 278.222
L375.696 278.222
L375.84 270.926
L377.136 270.926
L377.28 278.717
L378.576 278.717
L378.72 274.431
L381.456 274.53
L381.6 283.3
L382.896 283.3
L383.04 269.436
L384.336 269.436
L384.48 242.674
L385.776 242.674
L385.92 244.236
L387.216 244.236
L387.36 249.261
L388.656 249.261
L388.8 238.432
L390.096 238.432
L390.24 254.8
L391.536 254.8
L391.68 263.793
L392.976 263.793
L393.12 269.155
L394.416 269.155
L394.56 285.774
L395.856 285.774
L396 299.367
L397.296 299.367
L397.44 304.959
L398.736 304.959
L398.88 319.742
L400.176 319.742
L400.32 307.426
L401.616 307.426
L401.76 312.504
L403.056 312.504
L403.2 325.744
L404.496 325.744
L404.64 337.934
L405.936 337.934
L406.08 340.991
L407.376 340.991
L407.52 348.018
L408.816 348.018
L408.96 343.471
L410.256 343.471
L410.4 336.7
L411.696 336.7
L411.84 340.172
L413.136 340.172
L413.28 328.581
L414.576 328.581
L414.72 345.924
L416.016 345.924
L416.16 343.132
L417.456 343.132
L417.6 363.673
L418.896 363.673
L419.04 352.059
L420.336 352.059
L420.48 344.532
L421.776 344.532
L421.92 349.872
L423.216 349.872
L423.36 292.965
L424.656 292.965
L424.8 285.114
L426.096 285.114
L426.24 293.879
L427.536 293.879
L427.68 280.679
L428.976 280.679
L429.12 291.376
L430.416 291.376
L430.56 297.789
L431.856 297.789
L432 301.057
L433.296 301.057
L433.44 287.867
L434.736 287.867
L434.88 289.186
L436.176 289.186
L436.32 285.176
L437.616 285.176
L437.76 288.185
L439.056 288.185
L439.2 311.456
L440.496 311.456
L440.64 308.795
L441.936 308.795
L442.08 328.807
L443.376 328.807
L443.52 349.379
L444.816 349.379
L444.96 314.573
L446.256 314.573
L446.4 332.389
L447.696 332.389
L447.84 337.212
L449.136 337.212
L449.28 341.912
L450.576 341.912
L450.864 342.083
L452.016 342.083
L452.16 328.99
L453.456 328.99
L453.6 320.752
L454.896 320.752
L455.04 319.428
L456.336 319.428
L456.48 300.79
L457.776 300.79
L457.92 294.942
L459.216 294.942
L459.36 287.463
L460.656 287.463
L460.8 287.18
L462.096 287.18
L462.24 303.888
L463.536 303.888
L463.68 328.205
L464.976 328.205
L465.12 352.851
L466.416 352.851
L466.56 361.099
L467.856 361.099
L468 358.554
L469.296 358.554
L469.44 350.757
L470.736 350.757
L470.88 348.679
L472.176 348.679
L472.32 355.648
L473.616 355.648
L473.76 354.682
L475.056 354.682
L475.2 361.142
L476.496 361.142
L476.64 359.733
L479.376 359.773
L479.52 347.004
L480.816 347.004
L480.96 342.436
L482.256 342.436
L482.4 333.771
L483.696 333.771
L483.84 334.829
L485.136 334.829
L485.28 330.151
L486.576 330.151
L486.72 316.037
L488.016 316.037
L488.16 311.913
L489.456 311.913
L489.6 335.144
L490.896 335.144
L491.04 314.251
L492.336 314.251
L492.48 304.196
L493.776 304.196
L493.92 315.16
L495.216 315.16
L495.36 307.358
L496.656 307.358
L496.8 310.116
L498.096 310.116
L498.24 316.32
L499.536 316.32
L499.68 308.096
L500.976 308.096
L501.12 295.97
L502.416 295.97
L502.56 291.321
L503.856 291.321
L504 291.116
L505.296 291.116
L505.44 304.235
L506.736 304.235
L506.88 307.403
L508.176 307.403
L508.32 324.171
L509.616 324.171
L509.76 311.143
L511.056 311.143
L511.2 325.694
L512.496 325.694
L512.64 306.284
L513.936 306.284
L514.08 329.065
L515.376 329.065
L515.52 344.311
L516.816 344.311
L516.96 360.967
L518.256 360.967
L518.256 360.967" style="fill:none;stroke:#729fcf;stroke-linecap:square;"/>
   </g>
   <g id="patch_3">
    <path d="
M86.4 367.2
L518.4 367.2" style="fill:none;stroke:#ffffff;stroke-linecap:square;stroke-linejoin:miter;"/>
   </g>
   <g id="patch_4">
    <path d="
M86.4 43.2
L518.4 43.2" style="fill:none;stroke:#ffffff;stroke-linecap:square;stroke-linejoin:miter;"/>
   </g>
   <g id="patch_5">
    <path d="
M86.4 367.2
L86.4 43.2" style="fill:none;stroke:#ffffff;stroke-linecap:square;stroke-linejoin:miter;"/>
   </g>
   <g id="patch_6">
    <path d="
M518.4 367.2
L518.4 43.2" style="fill:none;stroke:#ffffff;stroke-linecap:square;stroke-linejoin:miter;"/>
   </g>
   <g id="legend_1">
    <g id="patch_7">
     <path d="
M378.381 104.359
L512.4 104.359
L512.4 49.2
L378.381 49.2
z
" style="fill:#e5e5e5;stroke:#ffffff;stroke-linejoin:miter;stroke-width:0.5;"/>
    </g>
    <g id="line2d_49">
     <path d="
M386.781 58.4962
L403.581 58.4962" style="fill:none;stroke:#ef2929;stroke-linecap:square;"/>
    </g>
    <g id="line2d_50"/>
    <g id="text_18">
     <!-- rating_brightness -->
     <defs>
      <path d="
M51.4219 26.6562
Q51.4219 -0.984375 31.9844 -0.984375
Q25.9844 -0.984375 22 1.1875
Q18.0156 3.375 15.5312 8.20312
L15.4375 8.20312
Q15.4375 6.9375 15.3594 5.5625
Q15.2812 4.20312 15.2031 3.03125
Q15.1406 1.85938 15.0625 1.03125
Q14.9844 0.203125 14.9375 0
L6.45312 0
Q6.5 0.4375 6.54688 1.48438
Q6.59375 2.54688 6.64062 4
Q6.6875 5.46875 6.70312 7.21875
Q6.73438 8.98438 6.73438 10.8906
L6.73438 72.4688
L15.5312 72.4688
L15.5312 51.8125
Q15.5312 50.3438 15.5 49
Q15.4844 47.6562 15.4375 46.625
Q15.375 45.4062 15.3281 44.3438
L15.5312 44.3438
Q17.9688 49.4219 22 51.6094
Q26.0312 53.8125 31.9844 53.8125
Q42 53.8125 46.7031 47.0625
Q51.4219 40.3281 51.4219 26.6562
M42.1875 26.375
Q42.1875 31.8438 41.5 35.75
Q40.8281 39.6562 39.3125 42.1562
Q37.7969 44.6719 35.4531 45.8438
Q33.1094 47.0156 29.7344 47.0156
Q26.2656 47.0156 23.6094 45.8906
Q20.9531 44.7812 19.1719 42.2812
Q17.3906 39.7969 16.4531 35.7344
Q15.5312 31.6875 15.5312 25.8281
Q15.5312 20.1719 16.4531 16.3125
Q17.3906 12.4531 19.1719 10.0312
Q20.9531 7.625 23.5781 6.5625
Q26.2188 5.51562 29.6406 5.51562
Q32.8594 5.51562 35.2031 6.64062
Q37.5469 7.76562 39.1094 10.25
Q40.6719 12.75 41.4219 16.7188
Q42.1875 20.7031 42.1875 26.375" id="LiberationSans-62"/>
      <path d="
M15.4844 43.7969
Q16.9375 46.4844 18.6406 48.3594
Q20.3594 50.25 22.4062 51.4688
Q24.4688 52.6875 26.9062 53.25
Q29.3438 53.8125 32.375 53.8125
Q37.4531 53.8125 40.7031 52.4375
Q43.9531 51.0781 45.8281 48.6094
Q47.7031 46.1406 48.4062 42.7188
Q49.125 39.3125 49.125 35.2031
L49.125 0
L40.2812 0
L40.2812 33.5
Q40.2812 36.8594 39.8594 39.3906
Q39.4531 41.9375 38.2812 43.625
Q37.1094 45.3125 34.9531 46.1562
Q32.8125 47.0156 29.3906 47.0156
Q26.2656 47.0156 23.75 45.8906
Q21.2344 44.7812 19.4531 42.7188
Q17.6719 40.6719 16.6875 37.7344
Q15.7188 34.8125 15.7188 31.1562
L15.7188 0
L6.9375 0
L6.9375 72.4688
L15.7188 72.4688
L15.7188 53.6094
Q15.7188 52 15.6719 50.3906
Q15.625 48.7812 15.5469 47.4062
Q15.4844 46.0469 15.4219 45.0938
Q15.375 44.1406 15.3281 43.7969
z
" id="LiberationSans-68"/>
      <path d="
M26.7656 -20.75
Q22.2188 -20.75 18.7031 -19.8125
Q15.1875 -18.8906 12.6875 -17.1562
Q10.2031 -15.4375 8.64062 -13.0312
Q7.07812 -10.6406 6.39062 -7.71875
L15.2344 -6.45312
Q16.1094 -10.1094 19.1094 -12.0781
Q22.125 -14.0625 27 -14.0625
Q29.9844 -14.0625 32.4219 -13.2344
Q34.8594 -12.4062 36.5625 -10.5625
Q38.2812 -8.73438 39.2031 -5.79688
Q40.1406 -2.875 40.1406 1.3125
L40.1406 9.8125
L40.0469 9.8125
Q39.0625 7.8125 37.625 5.98438
Q36.1875 4.15625 34.1094 2.73438
Q32.0312 1.3125 29.2969 0.453125
Q26.5625 -0.390625 23.0469 -0.390625
Q18.0156 -0.390625 14.4219 1.29688
Q10.8438 2.98438 8.5625 6.34375
Q6.29688 9.71875 5.25 14.7188
Q4.20312 19.7344 4.20312 26.3125
Q4.20312 32.6719 5.25 37.75
Q6.29688 42.8281 8.65625 46.3594
Q11.0312 49.9062 14.8125 51.7812
Q18.6094 53.6562 24.0312 53.6562
Q29.6406 53.6562 33.7656 51.0938
Q37.8906 48.5312 40.1406 43.7969
L40.2344 43.7969
Q40.2344 45.0156 40.2969 46.5312
Q40.375 48.0469 40.4531 49.3906
Q40.5312 50.7344 40.625 51.7031
Q40.7188 52.6875 40.8281 52.8281
L49.1719 52.8281
Q49.125 52.3906 49.0781 51.3438
Q49.0312 50.2969 48.9688 48.8281
Q48.9219 47.3594 48.8906 45.5781
Q48.875 43.7969 48.875 41.8906
L48.875 1.51562
Q48.875 -9.57812 43.4219 -15.1562
Q37.9844 -20.75 26.7656 -20.75
M40.1406 26.4219
Q40.1406 31.9375 38.9375 35.8594
Q37.75 39.7969 35.7969 42.2812
Q33.8438 44.7812 31.3281 45.9531
Q28.8125 47.125 26.1719 47.125
Q22.7969 47.125 20.375 45.9531
Q17.9688 44.7812 16.375 42.2656
Q14.7969 39.75 14.0312 35.8125
Q13.2812 31.8906 13.2812 26.4219
Q13.2812 20.7031 14.0312 16.8125
Q14.7969 12.9375 16.3594 10.5469
Q17.9219 8.15625 20.3125 7.125
Q22.7031 6.10938 26.0312 6.10938
Q28.6562 6.10938 31.1719 7.21875
Q33.6875 8.34375 35.6875 10.7812
Q37.7031 13.2344 38.9219 17.0938
Q40.1406 20.9531 40.1406 26.4219" id="LiberationSans-67"/>
      <path d="
M-1.51562 -19.875
L-1.51562 -13.5312
L56.7344 -13.5312
L56.7344 -19.875
z
" id="LiberationSans-5f"/>
      <path d="
M20.2188 -0.984375
Q12.25 -0.984375 8.25 3.21875
Q4.25 7.42188 4.25 14.75
Q4.25 19.9688 6.21875 23.3125
Q8.20312 26.6562 11.3906 28.5625
Q14.5938 30.4688 18.6875 31.2031
Q22.7969 31.9375 27.0469 32.0312
L38.9219 32.2344
L38.9219 35.1094
Q38.9219 38.375 38.2344 40.6719
Q37.5469 42.9688 36.125 44.375
Q34.7188 45.7969 32.5938 46.4531
Q30.4688 47.125 27.5938 47.125
Q25.0469 47.125 23 46.75
Q20.9531 46.3906 19.4375 45.4375
Q17.9219 44.4844 16.9844 42.8438
Q16.0625 41.2188 15.7656 38.7188
L6.59375 39.5469
Q7.07812 42.6719 8.4375 45.2812
Q9.8125 47.9062 12.3281 49.7969
Q14.8438 51.7031 18.625 52.75
Q22.4062 53.8125 27.7812 53.8125
Q37.75 53.8125 42.7656 49.2344
Q47.7969 44.6719 47.7969 36.0312
L47.7969 13.2812
Q47.7969 9.375 48.8281 7.39062
Q49.8594 5.42188 52.7344 5.42188
Q53.4688 5.42188 54.2031 5.51562
Q54.9375 5.60938 55.6094 5.76562
L55.6094 0.296875
Q53.9531 -0.09375 52.3125 -0.28125
Q50.6875 -0.484375 48.8281 -0.484375
Q46.3438 -0.484375 44.5625 0.171875
Q42.7812 0.828125 41.6562 2.17188
Q40.5312 3.51562 39.9375 5.48438
Q39.3594 7.46875 39.2031 10.1094
L38.9219 10.1094
Q37.5 7.5625 35.8125 5.51562
Q34.125 3.46875 31.875 2.03125
Q29.6406 0.59375 26.7812 -0.1875
Q23.9219 -0.984375 20.2188 -0.984375
M22.2188 5.60938
Q26.4219 5.60938 29.5625 7.14062
Q32.7188 8.6875 34.7812 11.0781
Q36.8594 13.4844 37.8906 16.3125
Q38.9219 19.1406 38.9219 21.7344
L38.9219 26.0781
L29.2969 25.875
Q26.0781 25.8281 23.1719 25.4062
Q20.2656 25 18.0625 23.7812
Q15.875 22.5625 14.5781 20.3594
Q13.2812 18.1719 13.2812 14.5938
Q13.2812 10.2969 15.5938 7.95312
Q17.9219 5.60938 22.2188 5.60938" id="LiberationSans-61"/>
     </defs>
     <g transform="translate(416.780625 62.69625)scale(0.12 -0.12)">
      <use xlink:href="#LiberationSans-72"/>
      <use x="33.30078125" xlink:href="#LiberationSans-61"/>
      <use x="88.916015625" xlink:href="#LiberationSans-74"/>
      <use x="116.69921875" xlink:href="#LiberationSans-69"/>
      <use x="138.916015625" xlink:href="#LiberationSans-6e"/>
      <use x="194.53125" xlink:href="#LiberationSans-67"/>
      <use x="250.146484375" xlink:href="#LiberationSans-5f"/>
      <use x="305.76171875" xlink:href="#LiberationSans-62"/>
      <use x="361.376953125" xlink:href="#LiberationSans-72"/>
      <use x="394.677734375" xlink:href="#LiberationSans-69"/>
      <use x="416.89453125" xlink:href="#LiberationSans-67"/>
      <use x="472.509765625" xlink:href="#LiberationSans-68"/>
      <use x="528.125" xlink:href="#LiberationSans-74"/>
      <use x="555.908203125" xlink:href="#LiberationSans-6e"/>
      <use x="611.5234375" xlink:href="#LiberationSans-65"/>
      <use x="667.138671875" xlink:href="#LiberationSans-73"/>
      <use x="717.138671875" xlink:href="#LiberationSans-73"/>
     </g>
    </g>
    <g id="line2d_51">
     <path d="
M386.781 75.6825
L403.581 75.6825" style="fill:none;stroke:#ad7fa8;stroke-linecap:square;"/>
    </g>
    <g id="line2d_52"/>
    <g id="text_19">
     <!-- rating_valence -->
     <defs>
      <path d="
M29.9375 0
L19.5312 0
L0.34375 52.8281
L9.71875 52.8281
L21.3438 18.4531
Q21.6875 17.3906 22.1406 15.8438
Q22.6094 14.3125 23.0938 12.6406
Q23.5781 10.9844 24 9.4375
Q24.4219 7.90625 24.7031 6.89062
Q25 7.90625 25.4531 9.4375
Q25.9219 10.9844 26.4062 12.5938
Q26.9062 14.2031 27.4219 15.7344
Q27.9375 17.2812 28.3281 18.3594
L40.3281 52.8281
L49.6562 52.8281
z
" id="LiberationSans-76"/>
      <path d="
M6.73438 0
L6.73438 72.4688
L15.5312 72.4688
L15.5312 0
z
" id="LiberationSans-6c"/>
      <path d="
M13.4219 26.6562
Q13.4219 22.125 14.0781 18.3125
Q14.75 14.5 16.3125 11.7344
Q17.875 8.98438 20.4375 7.46875
Q23 5.95312 26.7656 5.95312
Q31.4531 5.95312 34.5938 8.48438
Q37.75 11.0312 38.4844 16.3125
L47.3594 15.7188
Q46.9219 12.4531 45.4531 9.42188
Q44 6.39062 41.4844 4.09375
Q38.9688 1.8125 35.3438 0.40625
Q31.7344 -0.984375 27 -0.984375
Q20.7969 -0.984375 16.4531 1.10938
Q12.1094 3.21875 9.39062 6.90625
Q6.6875 10.5938 5.46875 15.5938
Q4.25 20.6094 4.25 26.4688
Q4.25 31.7812 5.125 35.8594
Q6 39.9375 7.59375 42.9844
Q9.1875 46.0469 11.3281 48.125
Q13.4844 50.2031 15.9844 51.4375
Q18.5 52.6875 21.2812 53.25
Q24.0781 53.8125 26.9062 53.8125
Q31.3438 53.8125 34.8125 52.5938
Q38.2812 51.375 40.7969 49.25
Q43.3125 47.125 44.875 44.2344
Q46.4375 41.3594 47.0781 38.0312
L38.0312 37.3594
Q37.3594 41.75 34.5625 44.3281
Q31.7812 46.9219 26.6562 46.9219
Q22.9062 46.9219 20.3906 45.6719
Q17.875 44.4375 16.3125 41.9219
Q14.75 39.4062 14.0781 35.5938
Q13.4219 31.7812 13.4219 26.6562" id="LiberationSans-63"/>
     </defs>
     <g transform="translate(416.780625 79.8825)scale(0.12 -0.12)">
      <use xlink:href="#LiberationSans-72"/>
      <use x="33.30078125" xlink:href="#LiberationSans-61"/>
      <use x="88.916015625" xlink:href="#LiberationSans-74"/>
      <use x="116.69921875" xlink:href="#LiberationSans-69"/>
      <use x="138.916015625" xlink:href="#LiberationSans-6e"/>
      <use x="194.53125" xlink:href="#LiberationSans-67"/>
      <use x="250.146484375" xlink:href="#LiberationSans-5f"/>
      <use x="305.76171875" xlink:href="#LiberationSans-76"/>
      <use x="355.76171875" xlink:href="#LiberationSans-61"/>
      <use x="411.376953125" xlink:href="#LiberationSans-6c"/>
      <use x="433.59375" xlink:href="#LiberationSans-65"/>
      <use x="489.208984375" xlink:href="#LiberationSans-6e"/>
      <use x="544.82421875" xlink:href="#LiberationSans-63"/>
      <use x="594.82421875" xlink:href="#LiberationSans-65"/>
     </g>
    </g>
    <g id="line2d_53">
     <path d="
M386.781 92.8687
L403.581 92.8687" style="fill:none;stroke:#729fcf;stroke-linecap:square;"/>
    </g>
    <g id="line2d_54"/>
    <g id="text_20">
     <!-- rating_intensity -->
     <defs>
      <path d="
M29.5 0
Q27.6406 -4.78125 25.7031 -8.60938
Q23.7812 -12.4531 21.3906 -15.1562
Q19 -17.875 16.0625 -19.3125
Q13.1406 -20.75 9.32812 -20.75
Q7.67188 -20.75 6.25 -20.6562
Q4.82812 -20.5625 3.26562 -20.2188
L3.26562 -13.625
Q4.20312 -13.7656 5.375 -13.8438
Q6.54688 -13.9219 7.375 -13.9219
Q11.2344 -13.9219 14.5469 -11.0312
Q17.875 -8.15625 20.3594 -1.85938
L21.1875 0.25
L0.25 52.8281
L9.625 52.8281
L20.75 23.6406
Q21.2344 22.3125 21.9844 20.1094
Q22.75 17.9219 23.5 15.7188
Q24.2656 13.5312 24.8438 11.7656
Q25.4375 10.0156 25.5312 9.57812
Q25.6875 10.1094 26.25 11.6875
Q26.8125 13.2812 27.5156 15.2344
Q28.2188 17.1875 28.9531 19.1875
Q29.6875 21.1875 30.1719 22.6562
L40.5312 52.8281
L49.8125 52.8281
z
" id="LiberationSans-79"/>
     </defs>
     <g transform="translate(416.780625 97.06875)scale(0.12 -0.12)">
      <use xlink:href="#LiberationSans-72"/>
      <use x="33.30078125" xlink:href="#LiberationSans-61"/>
      <use x="88.916015625" xlink:href="#LiberationSans-74"/>
      <use x="116.69921875" xlink:href="#LiberationSans-69"/>
      <use x="138.916015625" xlink:href="#LiberationSans-6e"/>
      <use x="194.53125" xlink:href="#LiberationSans-67"/>
      <use x="250.146484375" xlink:href="#LiberationSans-5f"/>
      <use x="305.76171875" xlink:href="#LiberationSans-69"/>
      <use x="327.978515625" xlink:href="#LiberationSans-6e"/>
      <use x="383.59375" xlink:href="#LiberationSans-74"/>
      <use x="411.376953125" xlink:href="#LiberationSans-65"/>
      <use x="466.9921875" xlink:href="#LiberationSans-6e"/>
      <use x="522.607421875" xlink:href="#LiberationSans-73"/>
      <use x="572.607421875" xlink:href="#LiberationSans-69"/>
      <use x="594.82421875" xlink:href="#LiberationSans-74"/>
      <use x="622.607421875" xlink:href="#LiberationSans-79"/>
     </g>
    </g>
   </g>
  </g>
 </g>
 <defs>
  <clipPath id="p73727f8969">
   <rect height="324.0" width="432.0" x="86.4" y="43.2"/>
  </clipPath>
 </defs>
</svg>
